<svg width="204" height="220" viewBox="0 0 204 220" fill="none" xmlns="http://www.w3.org/2000/svg">
<g clip-path="url(#clip0_305:3481)">
<path d="M144.121 28.6164H181.814C181.814 28.6164 178.483 23.3113 168.778 24.1035C159.514 24.8406 159.032 21.4961 154.331 21.095C149.63 20.6938 145.692 23.8077 144.121 28.6164Z" fill="#E0E0E0"/>
<path d="M45.5988 115.774C45.5988 115.774 41.8209 117.559 47.3186 124.459C52.8163 131.358 56.3935 134.668 56.3935 134.668C56.3935 134.668 57.4312 136.297 55.8203 136.769C54.2094 137.24 50.4716 137.165 50.013 139.03C49.5544 140.895 51.3373 142.54 54.6794 143.663C58.0216 144.786 65.2277 147.564 65.8755 147.815C66.5233 148.066 67.2342 148.793 66.1908 149.264C65.1475 149.735 57.0528 151.475 58.228 154.78C59.4032 158.084 69.3037 159.954 70.3815 160.18C71.4592 160.406 71.763 160.752 71.7573 161.253C71.7516 161.755 68.9712 162.116 66.6896 162.692C64.4079 163.269 61.8855 164.287 62.7454 166.147C63.6053 168.007 69.8311 171.382 83.5725 170.911L89.9301 170.324L92.6303 165.234C97.6636 154.038 96.0699 147.785 94.3501 146.466C92.6303 145.147 90.6926 146.897 89.3167 148.587C87.9409 150.277 86.6395 152.458 86.1007 152.298C85.5618 152.137 85.2751 151.771 85.3898 150.793C85.5044 149.816 86.7485 141.041 83.561 138.98C80.3736 136.919 75.839 143.036 74.9619 143.738C74.0848 144.44 73.5517 143.613 73.5001 143.006C73.4485 142.4 72.8408 135.525 72.6975 132.391C72.5542 129.257 71.4707 127.257 69.2578 127.011C67.045 126.765 65.9443 129.884 64.9067 131.062C63.8691 132.241 62.4531 130.852 62.4531 130.852C62.4531 130.852 60.051 126.805 54.4272 119.996C48.8034 113.187 45.5242 115.829 45.5242 115.829" fill="#EBEBEB"/>
<path d="M90.4576 171.592C86.3414 166.578 79.1927 157.553 73.0071 149.836C66.8214 142.119 61.2148 135.144 57.1273 130.11C55.0807 127.602 53.424 125.567 52.2774 124.153L50.9589 122.533L50.6206 122.107L50.5117 121.961L50.6378 122.097L50.9875 122.513L52.3405 124.113C53.487 125.507 55.2068 127.527 57.242 130.039C61.3581 135.054 66.9877 142.023 73.1676 149.735C79.3475 157.447 86.4848 166.473 90.5779 171.522" fill="#E0E0E0"/>
<path d="M55.2295 139.311C55.3846 139.31 55.5391 139.328 55.6881 139.366C55.9805 139.411 56.399 139.486 56.9149 139.582C57.9525 139.782 59.38 140.083 60.9278 140.449L64.9408 141.387L66.1561 141.662C66.3069 141.689 66.4547 141.728 66.5975 141.778C66.4428 141.779 66.2885 141.762 66.1389 141.728C65.8465 141.683 65.4223 141.607 64.9064 141.502C63.8687 141.296 62.4528 140.976 60.8934 140.615L56.8805 139.702L55.6652 139.431C55.5161 139.403 55.3703 139.362 55.2295 139.311Z" fill="#E0E0E0"/>
<path d="M66.9758 141.372C66.9242 141.372 67.5147 138.769 68.2943 135.575C69.074 132.381 69.7504 129.804 69.8078 129.814C69.8651 129.824 69.2689 132.421 68.4892 135.61C67.7096 138.799 67.0331 141.402 66.9758 141.372Z" fill="#E0E0E0"/>
<path d="M75.8613 153.596C75.916 153.467 75.9851 153.343 76.0677 153.225L76.6754 152.223C77.1856 151.39 77.8907 150.217 78.6073 148.938C79.3239 147.66 79.9431 146.431 80.373 145.579C80.5794 145.172 80.7514 144.827 80.889 144.551C80.943 144.421 81.0122 144.297 81.0954 144.18C81.0706 144.317 81.0243 144.45 80.9578 144.576C80.8603 144.827 80.7055 145.188 80.5049 145.624C80.1036 146.506 79.5131 147.71 78.785 149.013C78.057 150.317 77.3404 151.465 76.7958 152.283C76.5263 152.694 76.297 153.02 76.1365 153.245C75.976 153.471 75.8785 153.606 75.8613 153.596Z" fill="#E0E0E0"/>
<path d="M64.7803 153.777C64.9235 153.75 65.0694 153.735 65.216 153.732L66.3969 153.672C67.4001 153.626 68.7817 153.581 70.3066 153.541C71.8316 153.501 73.2132 153.471 74.2164 153.456H75.3973C75.5432 153.447 75.6897 153.456 75.833 153.481C75.6917 153.508 75.5477 153.523 75.4031 153.526L74.2164 153.586C73.2189 153.626 71.8373 153.677 70.3124 153.717C68.7875 153.757 67.4059 153.787 66.4026 153.797H65.216C65.0703 153.805 64.9242 153.798 64.7803 153.777Z" fill="#E0E0E0"/>
<path d="M71.04 165.44C71.2291 165.408 71.4208 165.39 71.6133 165.385L73.1325 165.305C74.4109 165.245 76.1823 165.169 78.1372 165.099C80.0921 165.029 81.8635 164.979 83.1419 164.949H84.6611C84.8518 164.934 85.0436 164.934 85.2343 164.949C85.0461 164.985 84.8539 165.004 84.6611 165.004L83.1419 165.084C81.8635 165.149 80.0921 165.22 78.1372 165.29C76.1823 165.36 74.4109 165.415 73.1325 165.445L71.6133 165.47C71.4216 165.477 71.2295 165.467 71.04 165.44Z" fill="#E0E0E0"/>
<path d="M84.8447 164.863C84.908 164.69 84.9886 164.523 85.0855 164.362L85.8078 163.083C86.3811 162.01 87.241 160.516 88.1009 158.846C88.9609 157.176 89.7061 155.652 90.2335 154.544L90.8527 153.23C90.9207 153.065 91.0051 152.906 91.1049 152.754C91.061 152.925 91.0016 153.093 90.9272 153.255C90.8011 153.571 90.6119 154.028 90.3539 154.589C89.8609 155.712 89.1443 157.247 88.2729 158.921C87.4015 160.596 86.5531 162.075 85.9168 163.143C85.6014 163.675 85.3435 164.101 85.1428 164.392C85.0598 164.557 84.96 164.714 84.8447 164.863Z" fill="#E0E0E0"/>
<path d="M138.16 90.8632C131.338 84.1742 131.991 74.5118 134.577 66.2383C135.007 64.8594 135.23 63.3551 136.296 62.287C137.363 61.219 139.381 60.7828 140.642 61.6402C141.697 62.3723 141.886 63.681 142.276 64.8092C142.794 66.3161 143.787 67.6648 145.142 68.7003C146.031 69.3722 147.206 69.9137 148.341 69.6379C149.889 69.2568 150.502 67.6322 150.869 66.2483C151.546 63.6609 152.226 61.0769 152.91 58.4963C153.188 57.0928 153.724 55.7381 154.498 54.4849C155.346 53.2765 156.791 52.2786 158.373 52.2235C159.956 52.1683 161.635 53.3116 161.584 54.7306C161.489 55.3165 161.349 55.8962 161.165 56.4655C161.075 56.7482 161.081 57.048 161.182 57.3278C161.284 57.6075 161.478 57.8551 161.738 58.04C162.312 58.3308 163.063 58.0701 163.647 57.7642C165.66 56.7012 167.253 55.1317 168.778 53.5572C170.303 51.9828 171.799 50.3531 173.697 49.1397C175.594 47.9263 177.968 47.134 180.267 47.495C182.566 47.8561 184.646 49.5759 184.692 51.6418C184.738 53.7077 182.898 55.4225 181.058 56.7062C178.322 58.6156 175.284 60.1694 172.04 61.3193C171.427 61.4677 170.885 61.784 170.492 62.2219C169.919 63.0693 170.653 64.1975 171.61 64.729C172.699 65.3156 174.006 65.4761 175.205 65.8572C176.403 66.2383 177.612 66.9954 177.807 68.1136C178.071 69.663 176.317 70.8664 174.723 71.5584C171.554 72.9398 168.137 73.8369 164.622 74.2109C163.355 74.3413 162.042 74.4165 160.907 74.938C159.772 75.4595 158.872 76.5827 159.187 77.6758C159.503 78.7689 160.861 79.3856 162.134 79.4408C163.407 79.4959 164.656 79.1399 165.923 78.9995C168.291 78.7338 171.083 79.4458 172.011 81.3763C172.283 82.0305 172.377 82.7308 172.288 83.4223C172.198 84.1139 171.927 84.7779 171.496 85.3626C170.623 86.5223 169.492 87.5164 168.171 88.2859C163.745 91.1957 158.513 93.0232 153.013 93.5809C147.55 94.0824 142.763 93.5107 138.182 90.8682" fill="#F5F5F5"/>
<path d="M139.553 91.6704C140.797 88.4362 139.495 90.0608 142.046 86.1547C144.862 81.9412 147.949 77.8714 151.293 73.9651L153.908 70.8813C154.767 69.8785 155.627 68.8756 156.522 67.9329C158.26 66.1382 160.111 64.429 162.065 62.8134C163.917 61.259 165.74 59.845 167.454 58.5312C169.168 57.2175 170.808 56.0241 172.344 55.0212C174.761 53.3683 177.324 51.8861 180.009 50.5887C180.955 50.1374 181.729 49.8014 182.216 49.5858L182.789 49.3401C182.854 49.3073 182.923 49.282 182.996 49.2649L182.806 49.3602L182.233 49.6309C181.734 49.8666 180.995 50.2126 180.055 50.6789C177.402 52.0036 174.867 53.5004 172.47 55.1566C170.945 56.1946 169.329 57.393 167.62 58.7067C165.912 60.0204 164.095 61.4445 162.254 62.9989C160.313 64.6126 158.473 66.3184 156.745 68.1084C155.851 69.0411 155.025 70.0339 154.143 71.0468C153.26 72.0597 152.423 73.0926 151.534 74.1356C148.197 78.0341 145.11 82.0919 142.287 86.2901C139.73 90.1811 141.015 88.5365 139.753 91.7506" fill="#E0E0E0"/>
<path d="M156.608 67.9282C156.584 67.7214 156.584 67.5131 156.608 67.3064C156.608 66.9052 156.682 66.3286 156.757 65.6166C156.906 64.1925 157.187 62.232 157.508 60.0658C157.829 57.8997 158.081 55.9441 158.207 54.5251C158.27 53.813 158.316 53.2364 158.345 52.8353C158.343 52.6279 158.368 52.4209 158.419 52.2185C158.457 52.424 158.47 52.6324 158.459 52.8403C158.459 53.2414 158.459 53.8431 158.419 54.5351C158.345 55.9642 158.127 57.9348 157.806 60.1009C157.485 62.2671 157.192 64.1625 156.969 65.6166C156.871 66.2835 156.791 66.8451 156.722 67.2964C156.713 67.5102 156.675 67.7224 156.608 67.9282Z" fill="#E0E0E0"/>
<path d="M177.858 68.8157C177.579 68.8144 177.3 68.7875 177.027 68.7355C176.494 68.6653 175.72 68.565 174.763 68.4697C172.854 68.2591 170.177 68.0485 167.264 67.9282C164.352 67.8078 161.658 67.8078 159.732 67.853C158.768 67.853 158.012 67.9031 157.438 67.9232C157.158 67.947 156.876 67.947 156.596 67.9232C156.868 67.864 157.147 67.827 157.427 67.8129C157.966 67.7627 158.745 67.7025 159.72 67.6624C161.652 67.5672 164.306 67.5421 167.27 67.6624C169.786 67.7563 172.294 67.9638 174.786 68.2842C175.743 68.4045 176.506 68.5349 177.039 68.6352C177.317 68.6748 177.592 68.7352 177.858 68.8157Z" fill="#E0E0E0"/>
<path d="M142.391 85.8691C142.347 85.7918 142.318 85.7088 142.305 85.6234L142.133 84.9113C141.983 84.2845 141.8 83.382 141.559 82.2588C141.129 80.0174 140.648 76.9036 140.166 73.4588C139.685 70.014 139.237 66.9052 138.865 64.6588C138.676 63.5657 138.527 62.6531 138.412 61.9962C138.36 61.7054 138.326 61.4948 138.292 61.2692C138.279 61.1843 138.279 61.0983 138.292 61.0134C138.332 61.0913 138.359 61.1742 138.372 61.2591C138.418 61.4547 138.475 61.6904 138.55 61.9762C138.693 62.5979 138.882 63.5055 139.094 64.6287C139.524 66.8701 140.006 69.9839 140.487 73.4287C140.969 76.8735 141.416 79.9823 141.789 82.2287C141.978 83.3218 142.127 84.2344 142.241 84.8913C142.287 85.1821 142.327 85.3927 142.362 85.6133C142.38 85.6976 142.39 85.7832 142.391 85.8691Z" fill="#E0E0E0"/>
<path d="M171.496 83.8482C171.399 83.8754 171.299 83.8906 171.198 83.8933L170.355 83.9585L167.236 84.1791C164.599 84.3696 160.97 84.6805 156.952 84.9914C152.933 85.3023 149.299 85.5881 146.662 85.7285C145.343 85.7987 144.277 85.8438 143.537 85.8639H142.683C142.586 85.8767 142.488 85.8767 142.391 85.8639C142.487 85.843 142.584 85.8296 142.683 85.8238L143.531 85.7586L146.65 85.538C149.281 85.3474 152.916 85.0365 156.929 84.7257C160.942 84.4148 164.582 84.129 167.219 83.9886C168.538 83.9184 169.61 83.8732 170.344 83.8532H171.198C171.297 83.844 171.396 83.8423 171.496 83.8482Z" fill="#E0E0E0"/>
<path d="M194.071 134.883C194.045 134.962 194.012 135.039 193.973 135.114C193.899 135.284 193.795 135.505 193.664 135.786L192.437 138.293L188.034 147.243L188.005 147.299H187.936L174.052 149.304L169.403 149.971L169.19 150.001L169.242 149.816L172.298 139.261L172.366 139.376L164.203 136.187L161.956 135.289L161.382 135.049L161.188 134.959C161.261 134.971 161.332 134.991 161.4 135.019L162.002 135.234L164.295 136.082L172.492 139.191L172.584 139.226L172.556 139.311C171.684 142.37 170.664 145.97 169.546 149.876L169.391 149.725L174.04 149.059L187.931 147.083L187.839 147.143L192.351 138.243C192.895 137.18 193.331 136.342 193.635 135.736L193.985 135.079C194.006 135.011 194.035 134.946 194.071 134.883Z" fill="#E0E0E0"/>
<path d="M171.014 148.547L170.636 149.419L171.243 150.187L170.177 150.142L169.529 150.884L169.248 149.981L168.239 149.675L169.134 149.164L169.157 148.226L169.993 148.813L171.014 148.547Z" fill="#E0E0E0"/>
<path d="M161.48 134.377L161.291 134.813L161.595 135.194L161.067 135.174L160.741 135.54L160.603 135.094L160.099 134.938L160.546 134.683L160.557 134.221L160.976 134.512L161.48 134.377Z" fill="#E0E0E0"/>
<path d="M188.407 146.697L188.218 147.133L188.522 147.514L187.994 147.489L187.668 147.86L187.53 147.414L187.031 147.258L187.473 147.003L187.484 146.536L187.903 146.827L188.407 146.697Z" fill="#E0E0E0"/>
<path d="M172.871 138.875L172.682 139.311L172.986 139.692L172.452 139.672L172.131 140.038L171.994 139.592L171.489 139.436L171.936 139.181L171.948 138.719L172.361 139.01L172.871 138.875Z" fill="#E0E0E0"/>
<path d="M194.719 134.447L194.529 134.883L194.833 135.264L194.3 135.239L193.979 135.61L193.841 135.164L193.337 135.009L193.778 134.753L193.796 134.287L194.208 134.577L194.719 134.447Z" fill="#E0E0E0"/>
<path d="M20.959 170.936H50.97C50.97 170.936 48.3157 166.714 40.5937 167.325C33.2156 167.912 32.8373 165.249 29.088 164.919C25.3388 164.588 22.2087 167.11 20.959 170.936Z" fill="#E0E0E0"/>
<path d="M26.9443 67.587H56.9324C56.9324 67.587 54.2781 63.36 46.5504 63.9767C39.1723 64.5634 38.7997 61.8958 35.0447 61.5699C31.2898 61.2439 28.1711 63.7561 26.9443 67.587Z" fill="#F5F5F5"/>
<path d="M179.344 85.8389H203.995C203.995 85.8389 201.793 82.369 195.487 82.8754C189.428 83.3769 189.118 81.1656 186.04 80.8948C182.961 80.6241 180.37 82.6949 179.344 85.8389Z" fill="#F5F5F5"/>
<path d="M130.132 128.41C131.359 120.327 124.858 113.658 116.741 109.651C108.623 105.645 99.1756 104.296 90.2153 102.075C81.7595 99.9739 73.3496 96.9102 67.0837 91.5149C60.8178 86.1196 57.0686 78.0065 59.3158 70.5754C59.8891 68.7101 60.8923 66.8348 62.7555 65.7567C64.6186 64.6787 67.3818 64.7087 68.7519 66.223C71.6584 69.4522 65.9887 75.2487 69.5373 77.9313C70.3571 78.5481 71.475 78.7737 72.3177 79.3654C74.5649 80.9298 73.8369 83.9735 74.1579 86.4706C74.7828 91.4096 80.0741 94.8393 85.2794 96.84C92.239 99.5226 99.7833 100.781 107.173 102.356C114.562 103.93 122.009 105.941 128.166 109.877C134.323 113.813 139.632 119.906 139.632 126.564C139.632 128.425 139.351 130.711 138.015 132.16C136.679 133.609 134.982 133.905 133.056 133.113C131.13 132.321 129.789 131.107 130.144 128.415" fill="#E8505B"/>
<g opacity="0.8">
<path opacity="0.8" d="M130.132 128.41C131.359 120.327 124.858 113.658 116.741 109.651C108.623 105.645 99.1756 104.296 90.2153 102.075C81.7595 99.9739 73.3496 96.9102 67.0837 91.5149C60.8178 86.1196 57.0686 78.0065 59.3158 70.5754C59.8891 68.7101 60.8923 66.8348 62.7555 65.7567C64.6186 64.6787 67.3818 64.7087 68.7519 66.223C71.6584 69.4522 65.9887 75.2487 69.5373 77.9313C70.3571 78.5481 71.475 78.7737 72.3177 79.3654C74.5649 80.9298 73.8369 83.9735 74.1579 86.4706C74.7828 91.4096 80.0741 94.8393 85.2794 96.84C92.239 99.5226 99.7833 100.781 107.173 102.356C114.562 103.93 122.009 105.941 128.166 109.877C134.323 113.813 139.632 119.906 139.632 126.564C139.632 128.425 139.351 130.711 138.015 132.16C136.679 133.609 134.982 133.905 133.056 133.113C131.13 132.321 129.789 131.107 130.144 128.415" fill="white"/>
</g>
<path d="M90.8345 64.1824C90.5421 61.1738 93.0874 58.5814 95.9939 57.1624C98.9004 55.7434 102.214 55.1968 105.206 53.9583C112.659 50.8796 117.348 43.639 117.698 36.2079C118.048 28.7768 114.362 21.3507 108.6 15.8952C106.261 13.6789 103.383 11.3824 103.349 8.32869C103.309 5.17473 106.789 2.68766 110.309 2.72777C113.829 2.76789 117.027 4.8137 119.12 7.38601C121.212 9.95831 122.365 13.0371 123.494 16.0456C122.686 14.787 124.337 13.2276 125.925 13.358C127.513 13.4883 128.791 14.6516 129.748 15.8099C133.993 20.8433 136.028 27.0434 135.481 33.2796C134.912 39.4019 131.742 45.1158 126.595 49.2951C120.943 53.8079 113.456 55.9239 106.204 57.9246L91.058 62.1014" fill="#E8505B"/>
<g opacity="0.8">
<path opacity="0.8" d="M90.8345 64.1824C90.5421 61.1738 93.0874 58.5814 95.9939 57.1624C98.9004 55.7434 102.214 55.1968 105.206 53.9583C112.659 50.8796 117.348 43.639 117.698 36.2079C118.048 28.7768 114.362 21.3507 108.6 15.8952C106.261 13.6789 103.383 11.3824 103.349 8.32869C103.309 5.17473 106.789 2.68766 110.309 2.72777C113.829 2.76789 117.027 4.8137 119.12 7.38601C121.212 9.95831 122.365 13.0371 123.494 16.0456C122.686 14.787 124.337 13.2276 125.925 13.358C127.513 13.4883 128.791 14.6516 129.748 15.8099C133.993 20.8433 136.028 27.0434 135.481 33.2796C134.912 39.4019 131.742 45.1158 126.595 49.2951C120.943 53.8079 113.456 55.9239 106.204 57.9246L91.058 62.1014" fill="white"/>
</g>
<path d="M86.6211 1.26364C85.8757 1.56012 85.2818 2.08715 84.9538 2.74339C84.6257 3.39964 84.5866 4.13879 84.8439 4.81874C85.1532 5.48654 85.7349 6.03013 86.4763 6.34417C87.2178 6.65822 88.066 6.72037 88.8568 6.51857C89.6263 6.27657 90.2668 5.79505 90.656 5.16605C91.0452 4.53705 91.1557 3.80468 90.9665 3.10889C90.7266 2.42274 90.2052 1.83837 89.5026 1.46813C88.7999 1.09789 87.9656 0.967914 87.1599 1.10319" fill="#E8505B"/>
<g opacity="0.8">
<path opacity="0.8" d="M86.6211 1.26364C85.8757 1.56012 85.2818 2.08715 84.9538 2.74339C84.6257 3.39964 84.5866 4.13879 84.8439 4.81874C85.1532 5.48654 85.7349 6.03013 86.4763 6.34417C87.2178 6.65822 88.066 6.72037 88.8568 6.51857C89.6263 6.27657 90.2668 5.79505 90.656 5.16605C91.0452 4.53705 91.1557 3.80468 90.9665 3.10889C90.7266 2.42274 90.2052 1.83837 89.5026 1.46813C88.7999 1.09789 87.9656 0.967914 87.1599 1.10319" fill="white"/>
</g>
<path d="M105.293 194.467C103.435 191.103 105.052 186.906 108.01 184.208C110.968 181.511 115.01 179.971 118.902 178.467C127.53 175.143 136.674 171.181 141.059 163.876C142.538 161.414 143.352 158.706 144.212 156.023C145.823 150.823 147.337 144.922 144.098 140.344C143.163 139.03 141.765 137.837 140.016 137.586C138.033 137.275 136.003 138.233 134.771 139.637C133.538 141.041 133.022 142.811 132.77 144.561C132.288 147.89 132.684 151.275 132.283 154.589C131.881 157.904 130.488 161.414 127.341 163.334C123.523 165.661 118.071 165.139 114.362 167.601C111.364 169.607 110.223 173.037 107.878 175.624C105.912 177.785 103.154 179.264 100.632 180.924C98.1096 182.584 95.6618 184.619 94.8076 187.277C94.3564 188.669 94.3737 190.145 94.8573 191.528C95.341 192.912 96.2705 194.144 97.5345 195.077C98.7985 196.01 100.343 196.604 101.984 196.789C103.624 196.973 105.291 196.74 106.783 196.117" fill="#E8505B"/>
<g opacity="0.8">
<path opacity="0.8" d="M105.293 194.467C103.435 191.103 105.052 186.906 108.01 184.208C110.968 181.511 115.01 179.971 118.902 178.467C127.53 175.143 136.674 171.181 141.059 163.876C142.538 161.414 143.352 158.706 144.212 156.023C145.823 150.823 147.337 144.922 144.098 140.344C143.163 139.03 141.765 137.837 140.016 137.586C138.033 137.275 136.003 138.233 134.771 139.637C133.538 141.041 133.022 142.811 132.77 144.561C132.288 147.89 132.684 151.275 132.283 154.589C131.881 157.904 130.488 161.414 127.341 163.334C123.523 165.661 118.071 165.139 114.362 167.601C111.364 169.607 110.223 173.037 107.878 175.624C105.912 177.785 103.154 179.264 100.632 180.924C98.1096 182.584 95.6618 184.619 94.8076 187.277C94.3564 188.669 94.3737 190.145 94.8573 191.528C95.341 192.912 96.2705 194.144 97.5345 195.077C98.7985 196.01 100.343 196.604 101.984 196.789C103.624 196.973 105.291 196.74 106.783 196.117" fill="white"/>
</g>
<path d="M47.8909 24.4946C46.3768 23.4932 45.1517 22.1957 44.3135 20.7059C43.4754 19.2162 43.0474 17.5755 43.0639 15.9152C43.1129 14.2571 43.6051 12.632 44.501 11.1701C45.397 9.70814 46.6718 8.44999 48.2234 7.49633C49.9834 6.43331 52.0758 5.78647 53.6409 4.51286C55.0339 3.37964 55.934 1.80516 57.5047 0.852457C58.4953 0.276327 59.6649 -0.0183934 60.8541 0.00852901C62.0432 0.0354514 63.1939 0.382704 64.149 1.00288C65.0661 1.6462 65.7373 2.51867 66.0733 3.50406C66.4092 4.48945 66.3939 5.54097 66.0293 6.51855C65.307 8.27855 63.5012 9.56721 62.7502 11.3172C61.9362 13.1975 62.4578 15.3286 62.1769 17.2992C61.9943 18.5332 61.4953 19.7152 60.7171 20.7568C59.9389 21.7985 58.9016 22.6728 57.6828 23.3146C56.464 23.9563 55.0951 24.3489 53.6785 24.4629C52.2619 24.577 50.8341 24.4095 49.5018 23.9731" fill="#E8505B"/>
<g opacity="0.8">
<path opacity="0.8" d="M47.8909 24.4946C46.3768 23.4932 45.1517 22.1957 44.3135 20.7059C43.4754 19.2162 43.0474 17.5755 43.0639 15.9152C43.1129 14.2571 43.6051 12.632 44.501 11.1701C45.397 9.70814 46.6718 8.44999 48.2234 7.49633C49.9834 6.43331 52.0758 5.78647 53.6409 4.51286C55.0339 3.37964 55.934 1.80516 57.5047 0.852457C58.4953 0.276327 59.6649 -0.0183934 60.8541 0.00852901C62.0432 0.0354514 63.1939 0.382704 64.149 1.00288C65.0661 1.6462 65.7373 2.51867 66.0733 3.50406C66.4092 4.48945 66.3939 5.54097 66.0293 6.51855C65.307 8.27855 63.5012 9.56721 62.7502 11.3172C61.9362 13.1975 62.4578 15.3286 62.1769 17.2992C61.9943 18.5332 61.4953 19.7152 60.7171 20.7568C59.9389 21.7985 58.9016 22.6728 57.6828 23.3146C56.464 23.9563 55.0951 24.3489 53.6785 24.4629C52.2619 24.577 50.8341 24.4095 49.5018 23.9731" fill="white"/>
</g>
<path d="M48.1143 13.7441H55.1598V26.4452C55.1598 26.8015 55.0796 27.1542 54.9237 27.4833C54.7679 27.8124 54.5394 28.1115 54.2514 28.3634C53.9634 28.6153 53.6215 28.8151 53.2453 28.9514C52.869 29.0878 52.4657 29.1579 52.0584 29.1579H51.2157C50.3931 29.1579 49.6043 28.8721 49.0226 28.3634C48.441 27.8547 48.1143 27.1647 48.1143 26.4452V13.7441Z" fill="#E8505B"/>
<path d="M48.1143 13.7441L51.6342 8.09302L55.1598 13.7441H48.1143Z" fill="#FFBE9D"/>
<path d="M50.2412 10.3294C50.2412 10.3294 51.3075 11.7384 53.0331 10.3294L51.6343 8.09302L50.2412 10.3294Z" fill="#E8505B"/>
<path d="M55.2577 25.8285C54.0692 25.9541 52.871 25.996 51.6748 25.9538C50.4785 25.996 49.2804 25.9541 48.0918 25.8285C49.2804 25.7029 50.4785 25.6609 51.6748 25.7031C52.871 25.6609 54.0692 25.7029 55.2577 25.8285Z" fill="#263238"/>
<path d="M55.1827 24.8857C54.0188 25.0083 52.8456 25.0502 51.6742 25.011C50.499 25.0507 49.322 25.0088 48.1543 24.8857C49.3179 24.7601 50.4913 24.7181 51.6627 24.7603C52.838 24.7176 54.0153 24.7595 55.1827 24.8857Z" fill="#263238"/>
<path d="M50.1843 13.8342C50.2589 13.8342 50.3219 16.2962 50.3219 19.3499C50.3219 22.4036 50.2589 24.8656 50.1843 24.8656C50.1098 24.8656 50.041 22.4086 50.041 19.3499C50.041 16.2912 50.1041 13.8342 50.1843 13.8342Z" fill="#FAFAFA"/>
<path d="M53.033 13.8342C53.1075 13.8342 53.1763 16.2962 53.1763 19.3499C53.1763 22.4036 53.1075 24.8656 53.033 24.8656C52.9584 24.8656 52.8896 22.4086 52.8896 19.3499C52.8896 16.2912 52.9527 13.8342 53.033 13.8342Z" fill="#FAFAFA"/>
<path d="M109.323 187.387L141.334 188.586L142.103 190.215L121.126 220L83.2559 219.032L109.323 187.387Z" fill="#263238"/>
<path d="M81.8174 216.129L119.917 218.034L139.821 191.023L125.845 192.016L90.4796 202.911L81.8174 216.129Z" fill="#E0E0E0"/>
<path d="M76.4682 214.108L111.438 214.61C109.982 210.699 113.41 205.183 118.117 203.328C121.23 202.099 127.1 200.505 130.155 199.146C135.888 196.569 141.105 191.68 140.646 187.488L126.28 187.087L107.935 186.465C106.399 190.446 103.12 193.054 98.1323 194.623C93.6722 196.022 88.593 196.022 84.2361 197.632C77.2307 200.199 73.8656 208.512 76.474 214.143" fill="#EBEBEB"/>
<path d="M76.4686 214.108C76.4686 214.108 76.4342 214.043 76.3826 213.913L76.1419 213.321C76.0114 212.995 75.9116 212.659 75.8438 212.318C75.7264 211.859 75.6459 211.393 75.603 210.924C75.4856 209.624 75.5782 208.316 75.8782 207.038C76.2821 205.312 77.0437 203.666 78.1254 202.18C78.4274 201.751 78.7626 201.34 79.1286 200.951C79.3178 200.75 79.4955 200.54 79.7019 200.344L80.3497 199.773C80.5664 199.573 80.8002 199.389 81.0491 199.221C81.2956 199.051 81.5364 198.86 81.8001 198.695C82.3453 198.359 82.9205 198.062 83.5199 197.807C85.9449 196.739 88.8399 196.303 91.8553 195.801C93.3688 195.561 94.9224 195.3 96.4874 194.934C98.0822 194.548 99.621 194.003 101.074 193.309C101.833 192.955 102.554 192.542 103.229 192.076C103.927 191.609 104.566 191.08 105.138 190.496C106.326 189.296 107.23 187.902 107.798 186.395V186.314H107.901L123.179 186.816C128.476 186.996 133.968 187.122 139.581 187.287L140.607 187.317H140.733V187.423C140.81 188.385 140.652 189.351 140.268 190.256C140.087 190.701 139.875 191.137 139.632 191.559C139.357 191.966 139.105 192.382 138.795 192.763C137.584 194.279 136.123 195.63 134.461 196.774C132.852 197.896 131.095 198.846 129.227 199.602C127.381 200.324 125.512 200.916 123.684 201.508C121.855 202.099 120.043 202.661 118.323 203.318C117.48 203.64 116.689 204.06 115.973 204.566C115.617 204.813 115.276 205.075 114.953 205.354C114.636 205.633 114.336 205.926 114.053 206.231C112.937 207.411 112.105 208.775 111.605 210.242C111.099 211.632 111.069 213.12 111.519 214.525L111.565 214.66H111.404L85.9907 214.319L78.9337 214.194L77.082 214.154C76.6636 214.154 76.4514 214.154 76.4514 214.154C76.4514 214.154 76.6693 214.154 77.0878 214.154H78.9337L85.9907 214.224L111.438 214.53L111.33 214.665C110.859 213.222 110.883 211.689 111.398 210.257C111.901 208.757 112.748 207.361 113.886 206.156C114.156 205.835 114.494 205.559 114.798 205.258C115.129 204.975 115.478 204.707 115.841 204.456C116.575 203.937 117.385 203.505 118.249 203.172C119.969 202.51 121.792 201.949 123.621 201.352C125.449 200.755 127.312 200.164 129.141 199.447C130.982 198.697 132.714 197.757 134.301 196.649C135.942 195.522 137.383 194.189 138.577 192.693C138.887 192.322 139.151 191.91 139.397 191.514C139.634 191.101 139.842 190.675 140.022 190.241C140.388 189.371 140.54 188.443 140.469 187.518L140.607 187.633L139.581 187.603C133.962 187.438 128.476 187.312 123.173 187.102L107.896 186.6L108.022 186.525C107.44 188.059 106.518 189.479 105.31 190.702C104.725 191.292 104.072 191.828 103.361 192.301C102.672 192.772 101.94 193.192 101.171 193.555C99.6922 194.253 98.1264 194.8 96.5046 195.185C94.9281 195.561 93.3631 195.811 91.8496 196.047C88.8285 196.518 85.9506 196.96 83.56 198.008C82.9727 198.257 82.4091 198.547 81.8746 198.875C81.6167 199.041 81.3816 199.221 81.1351 199.377C80.8868 199.54 80.6548 199.721 80.4414 199.918L79.7994 200.48C79.5987 200.67 79.421 200.881 79.2261 201.076C78.8634 201.462 78.5284 201.868 78.2229 202.29C77.1448 203.759 76.3795 205.386 75.9641 207.094C75.6577 208.362 75.5535 209.661 75.6546 210.954C75.6884 211.421 75.7612 211.886 75.8724 212.343C75.9375 212.683 76.0294 213.018 76.1476 213.346C76.2451 213.602 76.3139 213.798 76.3654 213.938C76.417 214.078 76.4686 214.108 76.4686 214.108Z" fill="#263238"/>
<path d="M117.756 186.961C117.756 186.961 117.802 186.766 117.836 186.415C117.877 185.921 117.783 185.426 117.561 184.97C117.246 184.293 116.656 183.741 115.904 183.421C115.445 183.233 114.947 183.128 114.44 183.111C113.933 183.095 113.428 183.169 112.954 183.328C112.481 183.486 112.048 183.727 111.684 184.035C111.319 184.343 111.029 184.712 110.831 185.121C110.477 185.786 110.359 186.528 110.492 187.252C110.577 187.74 110.772 188.209 111.066 188.631C111.284 188.927 111.444 189.067 111.427 189.082C111.246 188.979 111.092 188.844 110.974 188.686C110.622 188.27 110.382 187.79 110.269 187.282C110.104 186.521 110.208 185.734 110.567 185.026C110.78 184.585 111.094 184.187 111.488 183.855C111.882 183.523 112.349 183.265 112.86 183.095C113.368 182.927 113.911 182.851 114.454 182.872C114.996 182.892 115.529 183.009 116.019 183.215C116.815 183.569 117.429 184.173 117.739 184.905C117.953 185.383 118.02 185.902 117.933 186.41C117.91 186.548 117.872 186.684 117.819 186.816C117.79 186.921 117.767 186.966 117.756 186.961Z" fill="#263238"/>
<path d="M123.254 186.961C123.254 186.961 123.3 186.766 123.328 186.415C123.372 185.921 123.278 185.425 123.053 184.971C122.74 184.294 122.152 183.742 121.402 183.421C120.942 183.233 120.444 183.127 119.937 183.111C119.429 183.095 118.924 183.169 118.45 183.327C117.975 183.486 117.543 183.727 117.177 184.035C116.812 184.343 116.521 184.712 116.323 185.121C115.975 185.787 115.857 186.528 115.985 187.252C116.066 187.741 116.261 188.21 116.558 188.631C116.776 188.927 116.936 189.067 116.919 189.082C116.738 188.979 116.584 188.844 116.466 188.686C116.11 188.272 115.869 187.792 115.761 187.282C115.591 186.522 115.693 185.734 116.053 185.026C116.267 184.585 116.58 184.187 116.974 183.855C117.368 183.524 117.835 183.265 118.346 183.095C118.856 182.926 119.399 182.85 119.943 182.871C120.487 182.891 121.02 183.009 121.511 183.216C122.308 183.569 122.922 184.172 123.231 184.905C123.443 185.384 123.512 185.901 123.431 186.41C123.407 186.548 123.367 186.684 123.311 186.816C123.254 186.921 123.254 186.966 123.254 186.961Z" fill="#263238"/>
<path d="M127.405 187.212C127.405 187.212 127.439 187.011 127.45 186.66C127.459 186.165 127.331 185.675 127.078 185.231C126.729 184.575 126.117 184.054 125.358 183.767C124.886 183.604 124.382 183.525 123.875 183.534C123.368 183.544 122.869 183.641 122.406 183.822C121.945 184.007 121.531 184.27 121.186 184.595C120.842 184.92 120.575 185.302 120.399 185.718C120.134 186.291 120.04 186.914 120.125 187.528C120.211 188.141 120.472 188.726 120.886 189.228C121.121 189.513 121.293 189.644 121.276 189.659C121.088 189.567 120.926 189.441 120.8 189.288C120.421 188.89 120.148 188.422 120.004 187.919C119.786 187.168 119.838 186.377 120.153 185.652C120.335 185.205 120.619 184.794 120.986 184.443C121.353 184.093 121.797 183.81 122.291 183.612C122.789 183.418 123.327 183.315 123.872 183.309C124.417 183.303 124.958 183.394 125.461 183.577C126.279 183.889 126.933 184.46 127.29 185.176C127.536 185.647 127.638 186.165 127.588 186.68C127.573 186.82 127.542 186.957 127.496 187.092C127.433 187.167 127.416 187.212 127.405 187.212Z" fill="#263238"/>
<path d="M131.852 187.432C131.824 187.432 131.852 187.232 131.852 186.881C131.828 186.386 131.671 185.904 131.394 185.472C130.998 184.829 130.345 184.336 129.559 184.088C129.079 183.946 128.571 183.89 128.065 183.923C127.56 183.956 127.067 184.078 126.616 184.281C126.165 184.484 125.766 184.764 125.441 185.105C125.117 185.445 124.874 185.84 124.727 186.264C124.46 186.959 124.436 187.708 124.658 188.415C124.807 188.894 125.066 189.341 125.42 189.729C125.673 190.005 125.856 190.13 125.839 190.145C125.646 190.06 125.477 189.94 125.34 189.794C124.935 189.416 124.635 188.961 124.463 188.465C124.199 187.726 124.199 186.933 124.463 186.194C124.617 185.739 124.874 185.316 125.22 184.951C125.566 184.586 125.993 184.285 126.475 184.068C126.957 183.852 127.485 183.722 128.026 183.689C128.567 183.655 129.11 183.717 129.622 183.872C130.459 184.142 131.148 184.68 131.549 185.377C131.831 185.838 131.965 186.358 131.938 186.881C131.933 187.021 131.912 187.161 131.875 187.297C131.898 187.387 131.881 187.438 131.852 187.432Z" fill="#263238"/>
<path d="M136.342 187.342C136.342 187.342 136.342 187.142 136.342 186.791C136.306 186.296 136.135 185.816 135.843 185.392C135.426 184.758 134.756 184.282 133.963 184.053C133.478 183.923 132.968 183.88 132.463 183.926C131.959 183.971 131.47 184.105 131.025 184.32C130.581 184.534 130.191 184.824 129.877 185.172C129.563 185.521 129.333 185.921 129.199 186.349C128.993 186.937 128.959 187.56 129.1 188.162C129.241 188.764 129.553 189.325 130.007 189.794C130.271 190.06 130.449 190.18 130.437 190.2C130.241 190.12 130.067 190.004 129.927 189.859C129.502 189.487 129.18 189.034 128.987 188.536C128.698 187.802 128.676 187.009 128.924 186.264C129.065 185.805 129.309 185.375 129.643 184.999C129.977 184.624 130.393 184.311 130.867 184.078C131.345 183.85 131.871 183.709 132.413 183.664C132.955 183.619 133.502 183.671 134.02 183.817C134.867 184.07 135.572 184.595 135.992 185.286C136.29 185.744 136.44 186.264 136.428 186.791C136.428 186.929 136.411 187.067 136.376 187.202C136.371 187.297 136.353 187.342 136.342 187.342Z" fill="#263238"/>
<path d="M140.113 187.784C140.113 187.784 140.113 187.583 140.113 187.232C140.099 186.735 139.949 186.249 139.678 185.813C139.289 185.167 138.642 184.67 137.86 184.414C137.381 184.269 136.874 184.208 136.369 184.235C135.863 184.263 135.368 184.378 134.914 184.575C134.005 184.98 133.317 185.683 132.999 186.53C132.727 187.223 132.693 187.971 132.901 188.681C133.046 189.161 133.302 189.61 133.652 190C133.899 190.276 134.077 190.406 134.059 190.421C133.87 190.332 133.702 190.211 133.566 190.065C133.17 189.681 132.878 189.223 132.712 188.726C132.459 187.985 132.473 187.194 132.752 186.46C132.912 186.005 133.175 185.583 133.527 185.22C133.879 184.857 134.311 184.56 134.798 184.347C135.285 184.135 135.816 184.011 136.359 183.984C136.902 183.957 137.446 184.026 137.958 184.188C138.791 184.471 139.471 185.019 139.861 185.723C140.134 186.187 140.26 186.706 140.228 187.227C140.221 187.366 140.198 187.504 140.159 187.638C140.154 187.689 140.138 187.738 140.113 187.784Z" fill="#263238"/>
<path d="M156.601 85.0666C155.018 85.0233 153.433 85.0853 151.86 85.2521C147.089 85.7914 142.707 87.8372 139.54 91.0047C136.373 94.1722 134.638 98.2429 134.662 102.451C134.638 105.219 135.043 107.977 135.866 110.649C138.624 119.199 139.472 126.74 139.157 130.41L148.381 134.748C148.381 134.748 152.657 129.382 156.779 127.066C160.901 124.749 174.648 118.542 180.083 112.194C183.591 108.092 184.268 99.658 175.909 92.3072C170.772 87.8186 163.86 85.2267 156.601 85.0666Z" fill="#E8505B"/>
<path d="M134.788 139.747L143.124 143.688L137.695 149.72L132.14 147.509L134.788 139.747Z" fill="#455A64"/>
<path d="M135.19 139.993C135.121 139.968 135.946 137.806 137.041 135.159C138.136 132.511 139.082 130.385 139.157 130.41C139.231 130.435 138.4 132.597 137.305 135.244C136.692 136.857 135.986 138.442 135.19 139.993Z" fill="#263238"/>
<path d="M142.596 143.407C142.533 143.372 143.834 141.331 145.514 138.844C147.194 136.357 148.61 134.367 148.678 134.402C148.747 134.437 147.44 136.483 145.76 138.97C144.081 141.457 142.665 143.407 142.596 143.407Z" fill="#263238"/>
<g opacity="0.4">
<path opacity="0.4" d="M159.37 85.2922C158.997 85.2922 154.405 90.0056 152.376 93.1846C145.554 103.88 145.245 114.29 143.353 126.424C143.078 128.154 142.097 131.895 142.114 131.804C143.123 132.501 146.517 133.875 146.517 133.875C146.517 133.875 149.722 130.496 150.995 128.796C156.085 121.991 161.617 116.686 165.98 109.501C170.343 102.316 174.539 95.9625 170.497 88.6116C170.509 88.6116 163.521 85.0916 159.37 85.2922Z" fill="black"/>
</g>
<path d="M180.123 113.272C180.072 113.2 180.031 113.122 180.002 113.041C179.922 112.886 179.836 112.65 179.681 112.359C179.249 111.519 178.709 110.725 178.071 109.992C177.089 108.858 175.893 107.879 174.533 107.099C172.787 106.09 170.798 105.446 168.72 105.219H168.669L168.634 105.179C167.521 103.839 166.274 102.589 164.908 101.443C163.422 100.18 161.703 99.144 159.823 98.3793C157.938 97.6378 155.88 97.2943 153.815 97.3765C151.932 97.4434 150.11 97.9753 148.558 98.9108L148.472 98.961L148.398 98.9008C146.819 97.6958 144.861 96.9355 142.78 96.7196C141.162 96.5608 139.525 96.743 138.004 97.2511C137.02 97.5818 136.096 98.0381 135.264 98.605C134.972 98.8005 134.76 98.961 134.616 99.0713C134.551 99.1339 134.478 99.1894 134.398 99.2368C134.453 99.1669 134.516 99.1029 134.588 99.0462C134.786 98.8698 134.995 98.7025 135.212 98.5448C136.262 97.7861 137.473 97.218 138.777 96.8736C140.08 96.5292 141.449 96.4155 142.803 96.5391C144.924 96.7488 146.923 97.5163 148.535 98.7404H148.381C149.967 97.7676 151.839 97.2141 153.775 97.1458C155.884 97.0491 157.988 97.3929 159.915 98.1487C161.822 98.9265 163.566 99.9791 165.074 101.263C166.445 102.424 167.696 103.689 168.812 105.043L168.726 104.998C170.838 105.235 172.857 105.903 174.619 106.949C175.993 107.745 177.195 108.749 178.168 109.912C178.8 110.66 179.324 111.474 179.727 112.334C179.871 112.63 179.945 112.871 180.014 113.026C180.058 113.105 180.094 113.187 180.123 113.272Z" fill="#263238"/>
<path d="M162.964 123.927C162.828 123.304 162.56 122.708 162.173 122.172C161.721 121.56 161.115 121.045 160.402 120.668C159.488 120.173 158.416 119.951 157.346 120.036H157.232V119.936C157.022 118.803 156.501 117.733 155.712 116.817C154.837 115.776 153.645 114.972 152.273 114.495C151.186 114.12 150.019 113.953 148.852 114.005C147.685 114.058 146.545 114.329 145.508 114.801L145.422 114.841L145.353 114.776C144.497 113.987 143.374 113.46 142.149 113.272C141.199 113.107 140.219 113.133 139.282 113.347C138.451 113.548 137.672 113.888 136.989 114.35C136.989 114.35 137.024 114.31 137.11 114.239C137.232 114.138 137.362 114.044 137.499 113.959C138.021 113.632 138.603 113.386 139.219 113.231C140.178 112.985 141.189 112.939 142.172 113.096C143.454 113.281 144.633 113.825 145.531 114.645H145.376C146.444 114.149 147.623 113.862 148.83 113.803C150.038 113.744 151.246 113.915 152.37 114.305C153.7 114.783 154.866 115.553 155.755 116.542C156.644 117.53 157.226 118.703 157.444 119.946L157.306 119.855C158.427 119.774 159.548 120.019 160.494 120.552C161.222 120.946 161.834 121.483 162.282 122.122C162.57 122.527 162.776 122.974 162.89 123.44C162.93 123.601 162.936 123.726 162.953 123.812C162.97 123.897 162.976 123.927 162.964 123.927Z" fill="#263238"/>
<path d="M141.512 145.588C141.512 145.588 141.421 145.488 141.208 145.413C140.89 145.323 140.546 145.332 140.234 145.438C139.995 145.506 139.746 145.545 139.494 145.553C139.339 145.552 139.186 145.524 139.045 145.469C138.903 145.415 138.775 145.336 138.669 145.237C138.227 144.836 138.061 144.235 137.643 143.848C137.547 143.755 137.428 143.681 137.295 143.632C137.162 143.584 137.018 143.562 136.874 143.568C136.579 143.594 136.287 143.644 136.003 143.718C135.72 143.791 135.422 143.805 135.132 143.758C134.877 143.711 134.642 143.606 134.45 143.452C134.158 143.249 133.956 142.964 133.876 142.645C133.834 142.533 133.834 142.411 133.876 142.299C133.876 142.299 133.876 142.419 133.974 142.62C134.079 142.898 134.279 143.141 134.547 143.317C134.722 143.439 134.929 143.522 135.149 143.558C135.405 143.586 135.665 143.565 135.911 143.497C136.212 143.413 136.521 143.354 136.834 143.322C137.019 143.314 137.203 143.341 137.373 143.403C137.544 143.464 137.696 143.558 137.82 143.678C138.302 144.179 138.457 144.736 138.829 145.077C138.91 145.157 139.009 145.223 139.119 145.269C139.229 145.316 139.349 145.343 139.471 145.348C139.702 145.347 139.931 145.32 140.154 145.267C140.506 145.168 140.889 145.187 141.226 145.323C141.489 145.448 141.524 145.588 141.512 145.588Z" fill="#263238"/>
<path d="M142.47 144.41C141.072 143.899 139.713 143.311 138.399 142.65C137.043 142.064 135.729 141.404 134.467 140.675C135.864 141.186 137.224 141.774 138.537 142.435C139.894 143.021 141.207 143.681 142.47 144.41Z" fill="#263238"/>
<path d="M140.813 146.255C140.813 146.255 140.699 146.306 140.492 146.391C140.395 146.431 140.275 146.491 140.12 146.546C139.937 146.605 139.741 146.627 139.547 146.611C139.044 146.588 138.562 146.426 138.171 146.15C137.942 145.979 137.763 145.762 137.649 145.518C137.552 145.283 137.414 145.061 137.242 144.861C137.035 144.709 136.794 144.597 136.534 144.532C136.274 144.467 136.002 144.451 135.734 144.485C135.246 144.534 134.752 144.491 134.284 144.36C133.962 144.254 133.699 144.044 133.55 143.773C133.458 143.578 133.493 143.458 133.504 143.458C133.516 143.458 133.539 143.568 133.647 143.728C133.814 143.951 134.063 144.117 134.353 144.2C134.801 144.292 135.266 144.311 135.723 144.255C136.029 144.214 136.341 144.232 136.639 144.309C136.936 144.385 137.21 144.517 137.443 144.696C137.636 144.914 137.787 145.158 137.89 145.418C137.985 145.631 138.136 145.822 138.331 145.975C138.677 146.231 139.102 146.391 139.552 146.436C139.859 146.46 140.167 146.413 140.447 146.301C140.562 146.257 140.689 146.242 140.813 146.255Z" fill="#263238"/>
<path d="M77.8738 99.4275L92.2975 97.5572L85.4182 89.033L81.7205 89.2235C80.5009 89.2863 79.3252 89.6445 78.325 90.2582C77.3247 90.8718 76.5393 91.7167 76.0566 92.6984C75.5331 93.761 75.3873 94.9369 75.6381 96.073L77.8738 99.4275Z" fill="#E8505B"/>
<path opacity="0.4" d="M77.8738 99.4275L92.2975 97.5572L85.4182 89.033L81.7205 89.2235C80.5009 89.2863 79.3252 89.6445 78.325 90.2582C77.3247 90.8718 76.5393 91.7167 76.0566 92.6984C75.5331 93.761 75.3873 94.9369 75.6381 96.073L77.8738 99.4275Z" fill="black"/>
<path d="M139.793 113.397C139.942 113.758 140.108 114.189 140.269 114.701C140.412 115.139 140.464 115.595 140.424 116.05C140.405 116.616 140.297 117.178 140.103 117.719C139.862 118.196 140.412 118.677 140.882 118.436C141.352 118.196 142.029 116.897 141.994 115.217C141.96 113.537 143.909 115.548 144.637 116.27C145.365 116.992 147.739 119.133 148.174 119.113C148.805 119.083 148.885 118.486 148.14 117.779C147.395 117.072 145.325 114.821 145.778 114.5C146.231 114.179 149.877 117.91 149.877 117.91C149.877 117.91 150.507 118.812 151.023 118.461C151.998 117.825 147.784 114.124 147.372 113.778C147.085 113.537 147.567 113.176 147.859 113.447C148.151 113.718 151.402 117.233 152.399 116.596C153.162 116.095 148.96 113.522 148.753 112.464C148.547 111.406 151.711 114.711 152.416 114.214C152.68 114.029 152.852 113.863 150.697 112.209C149.659 111.401 145.726 108.995 145.726 108.995L133.9 79.3604L124.762 83.9384L139.793 113.397Z" fill="#FFBE9D"/>
<path d="M69.3663 57.358L56.1408 43.5588C55.9796 43.0833 55.7645 42.623 55.4987 42.1849C55.1933 41.6336 54.7573 41.1456 54.2196 40.7531C53.6819 40.3606 53.0548 40.0726 52.3801 39.9084C51.5374 39.748 50.58 39.8232 49.9208 39.3418C49.6284 39.1262 49.4335 38.8404 49.1239 38.6198C48.8144 38.3991 48.3041 38.3791 48.1035 38.6699C48.0521 38.7806 48.0305 38.9001 48.0404 39.0192C48.0503 39.1384 48.0916 39.2539 48.1608 39.3569C48.6551 40.3804 49.4454 41.2738 50.4539 41.9492C49.2156 42.2752 47.4442 42.7766 47.4442 42.7766C47.4442 42.7766 44.6409 40.114 43.2135 40.114C41.786 40.114 44.36 42.4807 44.36 42.4807C44.36 42.4807 42.0669 40.6255 41.3618 41.147C40.6566 41.6684 42.4682 43.0473 42.4682 43.0473C41.9201 42.7334 41.2703 42.5839 40.6165 42.6211C39.9687 42.7164 39.4126 43.3833 39.7623 43.8697C39.9127 44.0452 40.1094 44.1863 40.3356 44.2809L43.8555 45.9957C44.4191 46.3227 45.0637 46.5273 45.7359 46.5924C47.5245 46.6426 48.8774 45.6748 50.666 45.7149C50.666 45.7149 60.6353 64.0721 61.6443 65.0198C62.6532 65.9675 84.5753 67.2561 84.5753 67.2561L97.2504 57.704L69.3663 57.358Z" fill="#FFBE9D"/>
<path d="M109.071 157.357L122.578 162.502L115.343 177.228C113.778 176.536 114.288 167.701 114.288 167.701L105.482 164.693L109.071 157.357Z" fill="#E8505B"/>
<g opacity="0.6">
<path opacity="0.6" d="M115.802 162.878C115.921 162.754 116.088 162.674 116.271 162.652C116.454 162.63 116.64 162.667 116.793 162.757C116.937 162.858 117.031 163.002 117.058 163.161C117.084 163.32 117.041 163.482 116.937 163.615C116.81 163.744 116.632 163.829 116.439 163.851C116.245 163.873 116.049 163.832 115.888 163.735C115.748 163.618 115.667 163.458 115.661 163.29C115.654 163.121 115.723 162.957 115.853 162.832" fill="white"/>
</g>
<path opacity="0.6" d="M122.578 162.502L121.19 162.03L114.775 176.326C114.775 176.326 114.775 177.103 115.349 177.228L122.578 162.502Z" fill="white"/>
<path d="M114.082 167.912C114.168 167.942 114.38 167.596 114.816 167.34C115.252 167.085 115.693 167.024 115.693 166.949C115.693 166.874 115.166 166.799 114.644 167.115C114.122 167.431 114.008 167.897 114.082 167.912Z" fill="#263238"/>
<path d="M114.081 169.732C114.156 169.777 114.448 169.517 114.913 169.406C115.377 169.296 115.784 169.356 115.818 169.286C115.853 169.216 115.406 168.99 114.827 169.141C114.248 169.291 113.984 169.697 114.081 169.732Z" fill="#263238"/>
<path d="M115.744 171.402C115.79 171.342 115.429 171.086 114.89 171.106C114.351 171.126 114.002 171.387 114.059 171.447C114.116 171.507 114.454 171.382 114.896 171.377C115.337 171.372 115.698 171.487 115.744 171.402Z" fill="#263238"/>
<path d="M112.167 167.035C112.259 167.035 112.305 166.664 112.534 166.267C112.763 165.871 113.067 165.611 113.016 165.545C112.964 165.48 112.523 165.676 112.259 166.147C111.995 166.618 112.087 167.05 112.167 167.035Z" fill="#263238"/>
<path d="M110.344 165.936C110.536 165.721 110.659 165.465 110.7 165.194C110.779 164.909 110.815 164.616 110.809 164.322C110.804 164.154 110.787 163.986 110.757 163.82C110.747 163.718 110.718 163.618 110.671 163.525C110.635 163.456 110.573 163.399 110.497 163.364C110.42 163.329 110.332 163.316 110.247 163.329C110.172 163.343 110.102 163.373 110.043 163.416C109.984 163.458 109.938 163.513 109.909 163.575C109.86 163.667 109.827 163.765 109.811 163.865C109.778 164.039 109.765 164.216 109.771 164.392C109.776 164.689 109.834 164.983 109.943 165.264C110.018 165.532 110.184 165.773 110.419 165.956C110.459 165.931 110.287 165.671 110.155 165.209C110.081 164.942 110.048 164.667 110.058 164.392C110.059 164.224 110.078 164.056 110.115 163.891C110.115 163.72 110.207 163.585 110.304 163.575C110.402 163.565 110.356 163.575 110.396 163.63C110.427 163.699 110.448 163.772 110.459 163.845C110.537 164.281 110.537 164.724 110.459 165.159C110.401 165.416 110.362 165.675 110.344 165.936Z" fill="#263238"/>
<path d="M110.504 165.886C110.533 165.886 110.304 165.611 109.788 165.385C109.481 165.256 109.151 165.173 108.813 165.139C108.613 165.122 108.411 165.122 108.211 165.139C108.08 165.137 107.95 165.164 107.834 165.218C107.719 165.273 107.621 165.353 107.552 165.45C107.522 165.516 107.514 165.589 107.529 165.659C107.544 165.729 107.582 165.794 107.638 165.846C107.717 165.92 107.808 165.984 107.907 166.037C108.084 166.135 108.278 166.208 108.481 166.252C108.817 166.327 109.17 166.327 109.507 166.252C110.08 166.132 110.332 165.866 110.304 165.851C110.029 165.936 109.75 166.008 109.467 166.067C109.163 166.103 108.854 166.081 108.561 166.002C108.392 165.954 108.23 165.888 108.079 165.806C107.913 165.716 107.798 165.601 107.844 165.55C107.894 165.5 107.955 165.46 108.025 165.433C108.094 165.406 108.17 165.393 108.246 165.395C108.436 165.379 108.628 165.379 108.819 165.395C109.13 165.414 109.437 165.471 109.73 165.565C110.206 165.726 110.476 165.921 110.504 165.886Z" fill="#263238"/>
<path d="M98.6719 177.589L104.261 187.818L105.981 197.03C106.011 197.187 106.077 197.337 106.176 197.47C106.275 197.604 106.404 197.719 106.556 197.807C106.708 197.895 106.878 197.954 107.058 197.982C107.237 198.01 107.421 198.005 107.598 197.967C107.804 197.926 107.996 197.841 108.156 197.72C108.317 197.6 108.442 197.447 108.521 197.275C109.547 195.054 113.273 186.861 112.82 186.129C112.316 185.286 107.775 174.997 107.775 174.997L98.6719 177.589Z" fill="#E8505B"/>
<path opacity="0.6" d="M107.627 197.967L112.488 185.432L112.712 185.873C112.909 186.251 112.945 186.677 112.815 187.076C112.46 188.139 111.405 191.088 108.584 197.265C108.504 197.442 108.374 197.599 108.207 197.722C108.04 197.844 107.84 197.929 107.627 197.967Z" fill="white"/>
<g opacity="0.6">
<path opacity="0.6" d="M108.349 183.05C108.25 183.2 108.218 183.378 108.261 183.548C108.303 183.717 108.416 183.867 108.578 183.968C108.746 184.059 108.948 184.089 109.141 184.054C109.334 184.019 109.504 183.919 109.616 183.777C109.719 183.617 109.751 183.429 109.705 183.25C109.66 183.07 109.54 182.912 109.37 182.804C109.182 182.727 108.967 182.716 108.77 182.773C108.573 182.83 108.408 182.951 108.309 183.11" fill="white"/>
</g>
<path d="M108.005 192.387C107.554 192.176 107.062 192.041 106.554 191.99C106.044 192.012 105.543 192.116 105.075 192.296C105.075 192.296 105.161 192.136 105.419 191.995C105.765 191.816 106.163 191.727 106.566 191.74C106.977 191.745 107.376 191.858 107.712 192.066C107.93 192.221 108.028 192.367 108.005 192.387Z" fill="#263238"/>
<path d="M107.873 194.101C107.839 194.172 107.3 193.986 106.601 194.071C105.901 194.157 105.454 194.452 105.374 194.392C105.675 194.082 106.098 193.88 106.56 193.826C107.022 193.772 107.49 193.871 107.873 194.101Z" fill="#263238"/>
<path d="M108.659 189.995C108.009 189.896 107.352 189.841 106.693 189.829C106.039 189.901 105.391 190.011 104.755 190.16C105.298 189.774 105.981 189.568 106.681 189.579C107.376 189.507 108.077 189.654 108.659 189.995Z" fill="#263238"/>
<path d="M107.26 186.761C107.26 186.836 106.486 186.856 105.62 187.162C104.755 187.468 104.175 187.914 104.118 187.859C104.442 187.413 104.939 187.084 105.517 186.931C106.057 186.698 106.674 186.637 107.26 186.761Z" fill="#263238"/>
<path d="M105.706 183.722C105.116 183.777 104.537 183.904 103.986 184.098C103.474 184.36 103.007 184.684 102.599 185.061C102.564 185.061 102.627 184.865 102.828 184.619C103.1 184.303 103.453 184.046 103.86 183.872C104.266 183.698 104.714 183.61 105.167 183.617C105.511 183.622 105.712 183.692 105.706 183.722Z" fill="#263238"/>
<path d="M103.711 183.521C103.605 183.409 103.53 183.277 103.494 183.135C103.35 182.761 103.291 182.366 103.322 181.972C103.315 181.681 103.42 181.397 103.62 181.165C103.69 181.096 103.783 181.048 103.885 181.027C103.987 181.005 104.095 181.011 104.193 181.044C104.386 181.125 104.538 181.264 104.623 181.435C104.774 181.794 104.777 182.187 104.633 182.547C104.489 182.908 104.205 183.213 103.832 183.411C103.458 183.6 103.029 183.688 102.598 183.663C102.167 183.638 101.754 183.502 101.413 183.271C101.324 183.212 101.253 183.136 101.203 183.049C101.153 182.962 101.127 182.866 101.126 182.769C101.131 182.672 101.17 182.579 101.239 182.504C101.308 182.428 101.403 182.373 101.51 182.348C101.831 182.292 102.162 182.309 102.473 182.398C102.91 182.499 103.322 182.669 103.689 182.899C103.952 183.06 104.067 183.175 104.055 183.185C103.548 182.918 103 182.715 102.427 182.584C102.153 182.518 101.864 182.509 101.585 182.558C101.527 182.572 101.475 182.601 101.437 182.642C101.399 182.682 101.376 182.732 101.372 182.784C101.382 182.847 101.406 182.907 101.442 182.961C101.478 183.015 101.527 183.062 101.585 183.1C101.887 183.291 102.245 183.402 102.617 183.42C102.989 183.437 103.359 183.361 103.683 183.2C103.998 183.032 104.239 182.775 104.366 182.472C104.493 182.169 104.498 181.837 104.382 181.531C104.327 181.41 104.226 181.309 104.096 181.245C104.039 181.223 103.977 181.218 103.917 181.229C103.857 181.241 103.803 181.269 103.763 181.31C103.6 181.507 103.508 181.743 103.499 181.987C103.468 182.505 103.54 183.024 103.711 183.521Z" fill="#263238"/>
<path d="M117.521 158.606L102.209 149.58L107.277 106.056L92.7731 98.6503L79.5132 95.9626C79.5132 95.9626 73.9754 106.041 71.4874 112.51C66.2476 126.229 62.573 131.148 63.4099 141.091C63.6794 144.24 76.9679 152.122 85.3606 156.49C85.4525 157.365 85.6018 158.236 85.8078 159.097C88.6742 170.434 97.4281 185.517 97.4281 185.517L110.734 180.107L106.44 167.25L110.912 169.532L117.521 158.606ZM84.6097 130.526L86.3983 123.551C86.0199 127.984 85.6759 132.612 85.4294 137.049C84.5535 134.973 84.2625 132.742 84.581 130.546L84.6097 130.526Z" fill="#263238"/>
<path d="M97.4229 185.527C97.381 185.47 97.3464 185.41 97.3197 185.347C97.2566 185.211 97.1649 185.031 97.0445 184.795L96.0184 182.674C95.1355 180.829 93.8686 178.161 92.3437 174.827C90.8188 171.492 89.0301 167.541 87.1842 163.078C86.7313 161.965 86.2899 160.812 85.8714 159.629C85.6879 159.027 85.4529 158.43 85.3325 157.798C85.2981 157.638 85.258 157.482 85.2293 157.322L85.1663 156.851C85.1261 156.53 85.086 156.214 85.0401 155.893C84.8873 154.609 84.7611 153.304 84.6618 151.977C84.6159 151.31 84.5701 150.638 84.5414 149.971C84.5127 149.304 84.4783 148.612 84.5414 147.93C84.765 142.46 85.2924 137.275 85.7223 132.557C86.1523 127.838 86.5822 123.601 86.9205 120.021C87.2587 116.441 87.4938 113.563 87.6141 111.567C87.6829 110.564 87.7231 109.792 87.7517 109.265C87.7517 109.01 87.7517 108.814 87.7919 108.664C87.832 108.513 87.7919 108.463 87.7919 108.463C87.8006 108.531 87.8006 108.6 87.7919 108.669C87.7919 108.814 87.7919 109.01 87.7919 109.265C87.7919 109.767 87.7632 110.569 87.7059 111.572C87.6084 113.578 87.4078 116.461 87.1326 120.031C86.8574 123.601 86.4275 127.853 85.986 132.567C85.5446 137.28 85.0516 142.475 84.8395 147.925C84.7936 148.607 84.8395 149.274 84.8395 149.931C84.8395 150.588 84.9083 151.27 84.9542 151.937C85.0497 153.274 85.1758 154.577 85.3325 155.848L85.4529 156.8L85.516 157.272C85.5446 157.427 85.5848 157.583 85.6192 157.733C85.7281 158.345 85.9631 158.942 86.1408 159.538C86.5536 160.722 86.995 161.87 87.4422 162.983C89.2422 167.441 91.0251 171.412 92.5157 174.741L96.1044 182.619L97.0789 184.755L97.3312 185.316C97.3721 185.383 97.4029 185.454 97.4229 185.527Z" fill="#455A64"/>
<path d="M87.1889 106.989C87.0591 106.92 86.9413 106.836 86.8392 106.738C86.5672 106.469 86.3483 106.162 86.1914 105.831C85.7426 104.722 85.5233 103.552 85.5436 102.376C85.527 101.212 85.5901 100.048 85.7328 98.8909C85.7601 98.4078 85.8368 97.9279 85.9621 97.4568C86.0091 97.9373 86.0091 98.4204 85.9621 98.9009C85.9105 99.7934 85.8245 101.017 85.8532 102.371C85.8441 103.521 86.0374 104.666 86.4265 105.765C86.5602 106.09 86.7434 106.397 86.9711 106.678C87.1373 106.864 87.2004 106.974 87.1889 106.989Z" fill="#455A64"/>
<path d="M81.4624 96.6294C81.6001 97.0236 81.6392 97.4392 81.5771 97.8478C81.5022 98.8452 81.1235 99.8068 80.4804 100.633C79.8372 101.459 78.9531 102.12 77.9196 102.546C77.5054 102.744 77.0484 102.863 76.5781 102.897C76.5781 102.857 77.0826 102.742 77.8279 102.396C78.7978 101.944 79.6276 101.292 80.2458 100.497C80.8639 99.7023 81.2519 98.788 81.3764 97.8328C81.4796 97.0957 81.4051 96.6344 81.4624 96.6294Z" fill="#455A64"/>
<path d="M105.253 121.931C105.261 121.975 105.261 122.019 105.253 122.062C105.253 122.167 105.253 122.292 105.213 122.453C105.173 122.809 105.116 123.305 105.047 123.957C104.881 125.266 104.651 127.126 104.365 129.418C103.792 134.041 102.943 140.399 102.032 147.419C101.711 150.728 101.966 154.06 102.788 157.302C103.149 158.714 103.613 160.104 104.176 161.464C104.692 162.752 105.167 163.971 105.609 165.044C106.469 167.22 107.174 168.99 107.667 170.234C107.896 170.835 108.08 171.307 108.211 171.648L108.343 172.019C108.362 172.061 108.375 172.105 108.383 172.149C108.36 172.098 108.349 172.044 108.349 171.989L108.183 171.628L107.61 170.229C107.099 168.99 106.366 167.22 105.471 165.064C105.018 163.971 104.531 162.777 104.004 161.494C103.428 160.128 102.953 158.731 102.582 157.312C101.74 154.049 101.477 150.692 101.802 147.359C102.697 140.339 103.585 133.966 104.216 129.358C104.537 127.071 104.789 125.216 104.984 123.907C105.081 123.28 105.156 122.784 105.208 122.403L105.276 122.017C105.242 121.977 105.253 121.931 105.253 121.931Z" fill="#455A64"/>
<path d="M79.4844 95.8924L81.8348 90.6475L87.1892 97.6373L80.0462 96.0729" fill="#FFBE9D"/>
<path d="M135.562 80.1175L129.204 67.6471C128.442 65.6414 127.015 65.3305 125.822 64.1672L109.885 56.3049C98.2763 52.143 91.953 66.0977 91.953 66.0977L81.3991 87.1575C68.9876 90.7577 77.776 99.0914 77.776 99.0914C77.776 99.0914 74.3994 93.9618 77.7186 92.1066C81.1984 90.1711 85.0508 95.2756 88.7542 100.129C93.1283 105.861 107.334 109.581 107.334 109.581C108.991 108.042 108.526 102.682 109.828 99.8084C110.241 98.8958 120.078 78.9642 120.078 78.9642L123.89 87.0472C123.89 87.0472 128.78 82.0329 131.148 81.2357C132.58 80.7529 134.057 80.3788 135.562 80.1175Z" fill="#E8505B"/>
<path d="M107.334 88.9778C107.188 89.0961 107.024 89.1958 106.847 89.2737C106.386 89.5107 105.903 89.712 105.402 89.8754C103.732 90.4226 101.928 90.585 100.165 90.3471C98.4026 90.1091 96.7393 89.4788 95.3352 88.5165C94.9126 88.2275 94.5194 87.9071 94.16 87.5588C94.0184 87.4389 93.8968 87.3022 93.7988 87.1527C93.839 87.1176 94.3721 87.6842 95.4556 88.3761C96.8578 89.2772 98.488 89.869 100.208 90.1012C101.927 90.3334 103.686 90.1992 105.333 89.7099C106.629 89.3339 107.305 88.9377 107.334 88.9778Z" fill="#263238"/>
<path d="M80.9289 69.1964L90.7606 70.0087L106.491 55.4674L97.2386 55.1917L80.7627 56.6107C81.6329 60.7674 81.6891 65.0232 80.9289 69.1964Z" fill="#E8505B"/>
<path d="M94.5906 61.5398C94.5634 61.6324 94.5229 61.7217 94.4702 61.8055L94.0747 62.5477L92.6185 65.2754C91.3917 67.5769 89.7522 70.7911 88.0323 74.3462C86.3125 77.9013 84.6729 81.1305 83.4461 83.442C82.8442 84.6003 82.3454 85.533 81.9843 86.1698C81.818 86.4706 81.6804 86.7113 81.5715 86.9018C81.5285 86.9913 81.4727 87.0755 81.4053 87.1526C81.4321 87.0589 81.4706 86.9681 81.5199 86.8818C81.6117 86.6862 81.7378 86.4355 81.8868 86.1297C82.2251 85.4477 82.6894 84.5151 83.2627 83.3718L87.7514 74.2509C89.5114 70.6908 91.1624 67.4867 92.4351 65.2002C93.0657 64.0569 93.5816 63.1343 93.9772 62.5075L94.4186 61.7855C94.4625 61.6969 94.5204 61.6142 94.5906 61.5398Z" fill="#263238"/>
<path d="M124.595 65.7717C124.595 65.8118 124.022 66.0876 123.179 66.7094C122.695 67.0747 122.25 67.4775 121.849 67.9128C121.369 68.4494 120.952 69.0274 120.605 69.6377C120.272 70.2569 120.011 70.9036 119.826 71.5682C119.681 72.1114 119.597 72.6655 119.573 73.2229C119.527 74.1756 119.659 74.7673 119.573 74.7773C119.514 74.6451 119.474 74.507 119.453 74.3661C119.414 74.2008 119.389 74.0332 119.378 73.8647C119.349 73.6467 119.336 73.4273 119.338 73.2079C119.339 72.6368 119.407 72.0673 119.539 71.508C119.714 70.8164 119.975 70.1438 120.319 69.5023C120.676 68.8736 121.113 68.2816 121.62 67.7373C122.038 67.2964 122.508 66.8963 123.024 66.5439C123.218 66.4046 123.423 66.2773 123.638 66.1628C123.792 66.0673 123.955 65.9834 124.125 65.9121C124.272 65.8428 124.431 65.7954 124.595 65.7717Z" fill="#263238"/>
<path d="M127.342 45.7952L118.095 60.878C117.368 62.0643 116.154 62.9657 114.698 63.4011C113.242 63.8364 111.652 63.7734 110.246 63.2247C109.489 62.9251 108.81 62.493 108.251 61.9551C107.693 61.4171 107.266 60.7847 106.997 60.0968C106.728 59.4089 106.624 58.6802 106.69 57.9556C106.756 57.231 106.991 56.5259 107.38 55.8838C108.246 54.4447 108.968 53.2714 108.968 53.2714C108.968 53.2714 104.955 50.9949 106.835 47.2042C108.509 43.8246 114.649 34.2825 115.956 32.2617L123.73 35.3054C124.767 35.7756 125.685 36.423 126.431 37.2092C127.176 37.9954 127.734 38.9045 128.071 39.8826C128.407 40.8607 128.516 41.8879 128.391 42.9035C128.266 43.9191 127.909 44.9024 127.342 45.7952Z" fill="#FFBE9D"/>
<path d="M108.991 53.2112C110.956 54.0198 113.151 54.2991 115.297 54.0135C115.297 54.0135 112.58 56.2097 108.452 54.1839L108.991 53.2112Z" fill="#EB996E"/>
<path d="M111.955 41.1569C111.88 41.296 111.871 41.4552 111.93 41.5999C111.989 41.7446 112.112 41.8629 112.27 41.9291C112.345 41.9656 112.428 41.9885 112.514 41.9964C112.6 42.0043 112.686 41.997 112.769 41.975C112.851 41.953 112.927 41.9168 112.993 41.8684C113.059 41.82 113.114 41.7605 113.153 41.6935C113.225 41.5533 113.232 41.3943 113.173 41.2496C113.115 41.1048 112.994 40.9854 112.838 40.9163C112.762 40.8806 112.678 40.8586 112.593 40.8514C112.507 40.8443 112.421 40.8521 112.338 40.8745C112.256 40.897 112.18 40.9335 112.114 40.982C112.048 41.0304 111.994 41.0899 111.955 41.1569Z" fill="#263238"/>
<path d="M111.989 40.6754C112.029 40.7757 112.648 40.6754 113.307 40.9161C113.967 41.1568 114.311 41.6582 114.42 41.6131C114.528 41.5679 114.454 41.4376 114.311 41.222C114.115 40.9355 113.823 40.7094 113.474 40.5751C113.128 40.4401 112.743 40.4032 112.373 40.4698C112.098 40.53 111.966 40.6152 111.989 40.6754Z" fill="#263238"/>
<path d="M118.147 43.8193C118.075 43.9601 118.069 44.1196 118.128 44.2644C118.188 44.4093 118.31 44.5283 118.468 44.5966C118.543 44.6324 118.626 44.6547 118.712 44.6622C118.797 44.6697 118.883 44.6623 118.966 44.6404C119.048 44.6184 119.124 44.5824 119.19 44.5345C119.256 44.4865 119.311 44.4275 119.351 44.3609C119.423 44.2207 119.43 44.0617 119.371 43.917C119.312 43.7722 119.192 43.6528 119.035 43.5837C118.959 43.5478 118.876 43.5254 118.79 43.5178C118.704 43.5102 118.617 43.5176 118.535 43.5395C118.452 43.5614 118.375 43.5974 118.309 43.6455C118.242 43.6935 118.187 43.7526 118.147 43.8193Z" fill="#263238"/>
<path d="M118.444 43.3331C118.484 43.4334 119.103 43.3331 119.762 43.5738C120.422 43.8145 120.766 44.3109 120.869 44.2708C120.972 44.2307 120.909 44.0953 120.766 43.8797C120.57 43.5932 120.278 43.3671 119.929 43.2328C119.583 43.0978 119.198 43.061 118.828 43.1275C118.553 43.1877 118.421 43.283 118.444 43.3331Z" fill="#263238"/>
<path d="M113.841 46.6876C113.544 46.4536 113.212 46.2547 112.855 46.0959C112.689 46.0157 112.546 45.9204 112.569 45.8101C112.634 45.6516 112.752 45.5137 112.907 45.414L113.985 44.4864C114.934 43.7106 115.813 42.8724 116.616 41.9792C115.589 42.681 114.631 43.4559 113.75 44.2958C113.377 44.6218 113.027 44.9377 112.689 45.2385C112.493 45.3767 112.357 45.5697 112.305 45.7851C112.302 45.8469 112.316 45.9085 112.344 45.9651C112.373 46.0216 112.417 46.0716 112.471 46.111C112.553 46.1698 112.644 46.2187 112.741 46.2564C113.086 46.4393 113.456 46.5841 113.841 46.6876Z" fill="#263238"/>
<path d="M115.584 47.851C115.481 47.8008 115.16 48.4326 114.312 48.6382C113.463 48.8438 112.741 48.4727 112.689 48.558C112.638 48.6432 112.798 48.7485 113.119 48.8839C113.537 49.0523 114.01 49.0878 114.455 48.9842C114.882 48.8819 115.247 48.6394 115.475 48.3073C115.636 48.0515 115.636 47.866 115.584 47.851Z" fill="#263238"/>
<path d="M119.431 40.9964C119.431 41.1769 120.119 41.3624 120.852 41.7485C121.586 42.1346 122.119 42.5659 122.297 42.4656C122.377 42.4154 122.343 42.2249 122.171 41.9642C121.928 41.6452 121.604 41.3794 121.225 41.1869C120.849 40.9896 120.424 40.8728 119.987 40.846C119.649 40.841 119.442 40.9061 119.431 40.9964Z" fill="#263238"/>
<path d="M113.09 39.1112C113.136 39.2867 113.664 39.3268 114.237 39.5374C114.81 39.748 115.206 40.0388 115.383 39.9235C115.464 39.8783 115.458 39.7179 115.32 39.5123C115.124 39.2572 114.845 39.0587 114.52 38.9419C114.194 38.825 113.837 38.7949 113.492 38.8554C113.205 38.9006 113.073 39.0109 113.09 39.1112Z" fill="#263238"/>
<path d="M124.441 48.0564C124.527 48.0564 127.795 48.4525 126.384 50.9897C124.974 53.5269 122.343 51.7669 122.371 51.6917C122.4 51.6165 124.441 48.0564 124.441 48.0564Z" fill="#FFBE9D"/>
<path d="M123.828 51.1051C123.828 51.1051 123.862 51.1602 123.925 51.2304C124.021 51.3246 124.154 51.3837 124.298 51.3959C124.547 51.3755 124.785 51.2967 124.986 51.1678C125.188 51.039 125.346 50.8648 125.444 50.6638C125.57 50.4473 125.641 50.2095 125.651 49.9668C125.669 49.8761 125.661 49.7829 125.628 49.6955C125.595 49.608 125.538 49.529 125.462 49.4654C125.41 49.4288 125.345 49.4088 125.278 49.4088C125.211 49.4088 125.147 49.4288 125.095 49.4654C125.02 49.5206 125.009 49.5807 124.992 49.5757C124.974 49.5707 124.951 49.5055 125.032 49.4102C125.084 49.3541 125.157 49.3152 125.238 49.2999C125.347 49.282 125.46 49.3017 125.553 49.3551C125.66 49.428 125.744 49.5231 125.798 49.6317C125.852 49.7402 125.875 49.8589 125.863 49.9769C125.86 50.2488 125.786 50.5166 125.645 50.7591C125.532 50.9909 125.343 51.1886 125.103 51.3277C124.862 51.4667 124.58 51.541 124.292 51.5413C124.202 51.5295 124.117 51.4993 124.043 51.4531C123.97 51.4069 123.91 51.346 123.868 51.2755C123.776 51.1702 123.788 51.1051 123.828 51.1051Z" fill="#EB996E"/>
<path d="M126.121 48.6381C125.853 48.515 125.551 48.4575 125.248 48.4716C124.946 48.4857 124.653 48.5709 124.401 48.7183C124.017 49.0092 123.765 49.4103 123.386 49.7212C123.211 49.8822 122.98 49.9877 122.729 50.0213C122.478 50.0549 122.221 50.0146 121.999 49.9067C121.869 49.8049 121.771 49.6747 121.717 49.5295C121.663 49.3842 121.653 49.2289 121.69 49.0794C121.764 48.7812 121.905 48.4985 122.102 48.247C122.893 47.1088 123.793 46.0307 124.47 44.8373C125.205 43.665 125.526 42.3284 125.393 40.9964C125.316 40.333 125.035 39.7001 124.581 39.1644C124.127 38.6287 123.516 38.2101 122.813 37.9528C121.862 37.6569 120.812 37.7472 119.844 37.5015C119.27 37.3519 118.742 37.0899 118.301 36.7355C117.86 36.381 117.517 35.9433 117.298 35.4557C117.185 35.2607 117.058 35.0715 116.92 34.889C116.954 34.8239 117.293 34.3124 117.637 34.2121C120.188 33.46 123.65 34.3224 125.766 35.7816C126.844 36.5177 127.727 37.45 128.352 38.5141C128.978 39.5782 129.332 40.7486 129.389 41.9441C129.417 44.2958 127.72 46.8982 126.144 48.6531" fill="#263238"/>
<path d="M126.155 48.3573C126.957 47.1589 128.27 46.2865 129.268 45.2034C130.265 44.1203 130.953 42.596 130.242 41.3474C130.001 40.9212 129.611 40.5652 129.405 40.124C129.25 39.6653 129.156 39.1925 129.124 38.7149C128.993 37.9852 128.675 37.2907 128.195 36.6831C127.714 36.0754 127.084 35.5702 126.35 35.205C125.329 34.7036 124.148 34.503 123.116 34.0316C121.477 33.2745 120.279 31.8805 118.559 31.2838C118.282 31.1679 117.98 31.104 117.673 31.0963C117.366 31.0885 117.06 31.137 116.776 31.2387C116.639 31.2954 116.517 31.377 116.418 31.4783C116.32 31.5795 116.247 31.6979 116.206 31.8256C116.164 31.9533 116.154 32.0873 116.176 32.2188C116.198 32.3502 116.252 32.4759 116.334 32.5875C116.301 32.4716 116.239 32.3634 116.153 32.2707C116.067 32.1779 115.958 32.1029 115.835 32.0508C115.712 31.9986 115.578 31.9708 115.441 31.9691C115.305 31.9674 115.169 31.9919 115.045 32.041C114.801 32.1578 114.602 32.3346 114.473 32.5495C114.343 32.7643 114.289 33.0077 114.317 33.2494C114.385 33.7334 114.601 34.1923 114.941 34.5782C116.002 35.8972 117.568 36.84 119.356 37.2357L123.311 36.965L126.556 39.0659L128.987 42.3954L124.635 47.3445L126.155 48.3573Z" fill="#263238"/>
<path d="M101.395 28.6263C101.234 26.4415 100.405 24.3346 98.9947 22.5258C97.5846 20.717 95.645 19.2726 93.3786 18.3435C91.1121 17.4144 88.602 17.0347 86.1105 17.244C83.619 17.4534 81.2374 18.2442 79.2147 19.5337C77.192 20.8233 75.6023 22.5643 74.6117 24.5748C73.6212 26.5854 73.2661 28.7918 73.5836 30.9634C73.9011 33.135 74.8795 35.1922 76.4166 36.92C77.9537 38.6479 79.9932 39.9829 82.3218 40.7858C82.425 42.2349 82.5454 43.8645 82.5454 43.8645L94.7733 43.1726C94.7733 43.1726 94.716 41.4427 94.63 39.8983C96.8338 38.7454 98.6314 37.0832 99.8248 35.0944C101.018 33.1057 101.562 30.8676 101.395 28.6263Z" fill="#E8505B"/>
<path d="M90.3477 43.373V43.2226C90.3477 43.1173 90.3477 42.9668 90.3764 42.7763C90.3764 42.3902 90.4337 41.8136 90.5082 41.0765C90.5828 40.3394 90.6745 39.4318 90.8637 38.3939C91.0702 37.2124 91.4101 36.0518 91.8784 34.929C92.1427 34.2739 92.4747 33.6412 92.8701 33.0386C93.0862 32.7083 93.3937 32.4307 93.7644 32.2313C93.9668 32.1331 94.1932 32.0786 94.4246 32.0725C94.6559 32.0664 94.8856 32.1088 95.0944 32.1962C95.3144 32.2889 95.4849 32.4524 95.5703 32.6525C95.6622 32.8555 95.6622 33.0814 95.5703 33.2843C95.3741 33.6688 95.0261 33.9786 94.59 34.1568C94.1145 34.3251 93.6054 34.4082 93.0926 34.4014C92.5798 34.3945 92.0738 34.2977 91.6045 34.1168C91.1352 33.9359 90.7122 33.6745 90.3604 33.348C90.0087 33.0216 89.7353 32.6368 89.5566 32.2163C89.3446 31.773 89.279 31.2866 89.3674 30.8123C89.4152 30.5609 89.5614 30.3319 89.7811 30.1645C90.0007 29.9971 90.2801 29.9017 90.5713 29.8947C90.7226 29.9018 90.8696 29.9411 90.9995 30.0093C91.1294 30.0775 91.2382 30.1724 91.3165 30.2858C91.4706 30.51 91.5295 30.7746 91.4828 31.0329C91.3433 31.5281 91.0258 31.971 90.577 32.2965C90.1543 32.6494 89.6518 32.921 89.1019 33.0937C88.5519 33.2664 87.9667 33.3365 87.3839 33.2994C86.7994 33.25 86.2373 33.0778 85.7452 32.7976C85.2531 32.5174 84.8457 32.1373 84.5576 31.6898C84.4084 31.4709 84.3135 31.2269 84.2789 30.9739C84.2444 30.7208 84.271 30.4642 84.357 30.2206C84.4012 30.0948 84.4751 29.9785 84.5738 29.8792C84.6726 29.7799 84.794 29.6998 84.9303 29.644C85.0664 29.5908 85.2139 29.5632 85.3631 29.5632C85.5122 29.5632 85.6597 29.5908 85.7959 29.644C86.0586 29.7524 86.2782 29.927 86.4265 30.1454C86.561 30.3604 86.6503 30.5948 86.6902 30.8374C86.7608 31.3087 86.7237 31.7876 86.5813 32.2464C86.3183 33.1188 85.6939 33.8745 84.8293 34.3666C83.9647 34.8587 82.9218 35.052 81.9034 34.909C81.4194 34.8739 80.963 34.6973 80.6078 34.4075C80.4326 34.2582 80.3207 34.0612 80.2905 33.8489C80.2603 33.6365 80.3135 33.4215 80.4415 33.2392C80.5902 33.0713 80.8085 32.9614 81.0492 32.9333C81.2769 32.909 81.508 32.9367 81.7199 33.0136C82.1153 33.1818 82.4373 33.4582 82.6372 33.8008C83.0385 34.4426 83.3652 35.0694 83.6977 35.6661C84.9933 38.0629 85.9335 40.0435 86.5641 41.4174C86.8794 42.1044 87.1374 42.6409 87.275 43.007C87.3495 43.1824 87.4068 43.3228 87.4527 43.4231L87.5043 43.5635C87.4782 43.5197 87.4552 43.4745 87.4355 43.4281C87.3896 43.3279 87.3266 43.1925 87.2406 43.017L86.501 41.4375C85.8475 40.0736 84.8901 38.098 83.5831 35.7112C83.2506 35.1196 82.9123 34.4878 82.5168 33.861C82.3338 33.5389 82.0332 33.2795 81.6626 33.1239C81.4807 33.0252 81.2624 32.9912 81.0528 33.0289C80.8431 33.0666 80.6579 33.1732 80.5353 33.3267C80.4127 33.4801 80.3619 33.6689 80.3936 33.8541C80.4252 34.0393 80.5367 34.2068 80.7052 34.3223C81.0408 34.5902 81.4679 34.7541 81.9206 34.7886C82.8786 34.9129 83.856 34.7352 84.678 34.2872C85.53 33.8096 86.1443 33.0682 86.3979 32.2113C86.5354 31.7723 86.5705 31.3136 86.501 30.8625C86.4842 30.6383 86.4022 30.4216 86.2627 30.2329C86.1233 30.0442 85.931 29.8898 85.7042 29.7844C85.592 29.7334 85.4681 29.705 85.3417 29.7016C85.2153 29.6981 85.0897 29.7196 84.974 29.7643C84.8584 29.8091 84.7558 29.8761 84.6738 29.9603C84.5918 30.0445 84.5325 30.1438 84.5003 30.2507C84.4229 30.4755 84.3998 30.712 84.4323 30.945C84.4649 31.1781 84.5525 31.4027 84.6895 31.6046C84.9659 32.0273 85.3555 32.3851 85.8248 32.6471C86.2941 32.9091 86.8291 33.0676 87.3839 33.1088C87.9422 33.1428 88.5024 33.0743 89.0287 32.9076C89.5549 32.7409 90.0354 32.4798 90.4394 32.1411C90.854 31.8328 91.1486 31.4192 91.2822 30.9577C91.3219 30.7341 91.2712 30.5054 91.1388 30.3109C91.0753 30.218 90.9866 30.1402 90.8807 30.0842C90.7747 30.0283 90.6547 29.9959 90.5312 29.99C90.2798 29.9912 90.0382 30.0753 89.8547 30.2256C89.6669 30.3763 89.5418 30.5775 89.4993 30.7973C89.4157 31.2423 89.4752 31.6989 89.6713 32.116C89.8449 32.5389 90.117 32.9257 90.4702 33.2519C90.8235 33.5782 91.2502 33.8368 91.7236 34.0114C92.6155 34.3346 93.6177 34.3346 94.5097 34.0114C94.9267 33.8569 95.2636 33.5729 95.4556 33.2141C95.5379 33.0444 95.5435 32.8537 95.4711 32.6805C95.3987 32.5074 95.2538 32.3647 95.0658 32.2815C94.8775 32.2029 94.6703 32.1651 94.4618 32.1712C94.2533 32.1773 94.0495 32.2272 93.8676 32.3166C93.5056 32.5041 93.2069 32.7723 93.002 33.0938C92.6043 33.6887 92.2667 34.3128 91.993 34.9591C91.5187 36.0744 91.173 37.2284 90.9611 38.4039C90.7605 39.4368 90.6516 40.3394 90.5713 41.0765C90.491 41.8136 90.4452 42.3802 90.4108 42.7763L90.3649 43.2176C90.3632 43.2696 90.3575 43.3216 90.3477 43.373Z" fill="#263238"/>
<path d="M93.9767 45.2084L83.48 45.8C83.271 45.811 83.0656 45.7491 82.9087 45.6279C82.7519 45.5066 82.6563 45.336 82.643 45.1532C82.6305 44.9704 82.7012 44.7908 82.8399 44.6535C82.9785 44.5163 83.1736 44.4328 83.3825 44.4211L93.8735 43.8295C94.0825 43.8171 94.2886 43.8777 94.4465 43.998C94.6045 44.1183 94.7015 44.2885 94.7162 44.4713C94.7288 44.6546 94.6582 44.8348 94.5197 44.9728C94.3812 45.1109 94.1861 45.1955 93.9767 45.2084Z" fill="#263238"/>
<path d="M94.0165 45.8101L83.5255 46.4018C83.3246 46.4229 83.1407 46.5106 83.0115 46.6468C82.8822 46.783 82.8176 46.9573 82.8308 47.1339C82.844 47.3105 82.9341 47.476 83.0825 47.5963C83.2309 47.7166 83.4264 47.7826 83.6287 47.7807L84.7753 47.7155L86.4951 50.1725C86.5916 50.311 86.7298 50.4236 86.8946 50.4979C87.0595 50.5722 87.2446 50.6053 87.4295 50.5937L91.1788 50.3831C91.365 50.3726 91.5443 50.3175 91.697 50.2238C91.8497 50.13 91.9699 50.0012 92.0444 49.8515L93.34 47.2291L94.1254 47.184C94.2285 47.178 94.3293 47.1544 94.422 47.1144C94.5147 47.0744 94.5975 47.0188 94.6656 46.9509C94.7338 46.8829 94.7859 46.8038 94.8191 46.7182C94.8523 46.6326 94.8659 46.5421 94.8592 46.4519C94.8524 46.3617 94.8254 46.2735 94.7796 46.1924C94.7339 46.1114 94.6704 46.039 94.5927 45.9794C94.5149 45.9198 94.4245 45.8741 94.3267 45.8451C94.2288 45.816 94.1253 45.8041 94.0222 45.8101H94.0165Z" fill="#263238"/>
<g opacity="0.2">
<path opacity="0.2" d="M77.9133 22.148C78.686 21.4304 79.5886 20.829 80.5847 20.3679C81.2452 20.0532 81.9565 19.8283 82.6944 19.701C83.2218 19.6208 83.5256 19.6509 83.5543 19.7461C83.6346 19.9617 82.6027 20.3529 81.2612 21.2504C79.4747 22.3832 78.0998 23.9428 77.3015 25.7421C76.5033 27.5414 76.3156 29.5039 76.761 31.3942C77.0648 32.8985 77.5292 33.771 77.2999 33.9013C77.2024 33.9515 76.9559 33.791 76.6291 33.3999C76.1855 32.8697 75.834 32.2851 75.5858 31.665C75.2154 30.7344 75.0218 29.7571 75.0125 28.7718C74.9718 27.5609 75.1956 26.3543 75.6718 25.2167" fill="white"/>
</g>
<g opacity="0.2">
<path opacity="0.2" d="M86.9481 20.0819C86.0652 20.122 85.2684 19.9565 85.148 19.5504C85.0964 19.3498 85.2397 19.1242 85.5493 18.9386C85.9368 18.7204 86.3843 18.5975 86.8449 18.5826C87.3065 18.5505 87.7696 18.6266 88.1864 18.8033C88.5131 18.9537 88.6908 19.1643 88.6679 19.3699" fill="white"/>
</g>
<path d="M91.8616 50.0773C91.614 50.0391 91.369 49.9888 91.1278 49.9269C90.5387 49.8153 89.9336 49.7832 89.3334 49.8316C88.7408 49.882 88.1607 50.0123 87.6136 50.2177C87.1836 50.3731 86.9371 50.5085 86.9199 50.4885C87.1085 50.334 87.3256 50.2086 87.562 50.1174C88.1196 49.8797 88.7216 49.732 89.3391 49.6812C89.9572 49.629 90.581 49.6766 91.1794 49.8216C91.4216 49.8726 91.6523 49.9591 91.8616 50.0773Z" fill="#455A64"/>
<path d="M93.3627 47.2591C93.3627 47.3042 91.4709 47.4446 89.1319 47.575C86.7929 47.7054 84.8896 47.7806 84.8896 47.7405C84.8896 47.7004 86.7815 47.5549 89.1204 47.4246C91.4594 47.2942 93.3627 47.219 93.3627 47.2591Z" fill="#455A64"/>
<path d="M92.79 48.3874C92.4537 48.464 92.1103 48.5144 91.7639 48.5378C91.1275 48.608 90.2447 48.6883 89.2644 48.7585C88.2841 48.8287 87.4012 48.8638 86.7592 48.8838C86.412 48.9098 86.063 48.9098 85.7158 48.8838C86.0583 48.8272 86.4051 48.7937 86.7534 48.7835L89.2529 48.6181L91.7467 48.4426C92.0923 48.4004 92.4411 48.382 92.79 48.3874Z" fill="#455A64"/>
<path d="M17.1982 109.812L19.4913 113.006C19.4913 113.006 29.237 105.179 38.8623 107.39C38.8566 107.375 30.1887 100.947 17.1982 109.812Z" fill="#E8505B"/>
<path d="M38.8564 107.375C38.8564 107.375 45.9937 100.596 56.456 102.145L59.3224 102.521L58.4109 101.077C58.4109 101.077 40.1979 95.6265 38.8564 107.375Z" fill="#E8505B"/>
<path d="M23.7897 84.52C23.7897 84.52 9.49219 82.3689 0.119141 86.8065L15.0243 111.321C15.0243 111.321 27.2121 101.047 38.8725 107.375L23.7897 84.52Z" fill="#F5F5F5"/>
<path d="M23.7906 84.5201C23.8203 84.5506 23.8453 84.5843 23.8651 84.6204C23.9224 84.6956 23.9912 84.7959 24.083 84.9263L24.9027 86.1447L28.0042 90.7879L38.9824 107.305C38.999 107.33 39.0036 107.36 38.995 107.388C38.9864 107.417 38.9654 107.441 38.9365 107.455C38.9163 107.465 38.8936 107.47 38.8706 107.47C38.8476 107.47 38.8249 107.465 38.8047 107.455C37.1254 106.548 35.2665 105.923 33.3242 105.615C32.303 105.47 31.2685 105.407 30.2342 105.43C29.1701 105.466 28.1114 105.582 27.0697 105.775C22.6631 106.722 18.5973 108.618 15.2431 111.291L15.1227 111.391C15.1098 111.403 15.0943 111.413 15.077 111.42C15.0598 111.426 15.0412 111.429 15.0224 111.429C15.0035 111.429 14.9849 111.426 14.9677 111.42C14.9504 111.413 14.9349 111.403 14.922 111.391V111.361L-0.000325613 86.8518C-0.00843549 86.8407 -0.0138448 86.8283 -0.0162139 86.8153C-0.018583 86.8024 -0.0178607 86.7891 -0.0140923 86.7764C-0.0103239 86.7637 -0.00359082 86.7518 0.00568406 86.7414C0.0149589 86.7311 0.0265753 86.7226 0.0398037 86.7164C3.03391 85.4099 6.26621 84.5716 9.59057 84.2393C12.1189 83.962 14.6688 83.8648 17.2151 83.9485C19.3248 84.0087 20.9758 84.1591 22.088 84.2794C22.6612 84.3346 23.074 84.3948 23.3606 84.4349L23.6817 84.485L23.7906 84.5101H23.6759L23.3549 84.475L22.0822 84.3496C20.9357 84.2494 19.319 84.119 17.2151 84.0739C14.6751 84.015 12.1338 84.1273 9.6135 84.4098C6.32651 84.7563 3.13244 85.596 0.171657 86.8919L0.223252 86.7465L15.1284 111.256L14.8991 111.226L15.0309 111.121C16.7691 109.762 18.6813 108.584 20.7293 107.611C22.6937 106.664 24.8013 105.965 26.9895 105.535C28.0484 105.339 29.1242 105.222 30.2055 105.184C31.2574 105.165 32.3089 105.231 33.3471 105.379C35.3269 105.708 37.2177 106.361 38.9193 107.305L38.7473 107.45C34.2815 100.641 30.538 94.9146 27.9067 90.9033L24.8569 86.22L24.0772 84.9564L23.8709 84.6304L23.7906 84.5201Z" fill="#263238"/>
<path d="M46.2626 79.4858C46.2626 79.4858 35.4506 73.4687 23.9736 84.5001L39.0393 107.375C39.0393 107.375 42.1121 98.0987 60.1014 101.328L46.2626 79.4858Z" fill="#F5F5F5"/>
<path d="M46.2627 79.4859C46.2899 79.5162 46.3148 79.548 46.3372 79.5811L46.5322 79.877L47.2889 81.0403L50.1553 85.4729L60.1933 101.288C60.2043 101.306 60.2093 101.326 60.2077 101.347C60.2061 101.367 60.1979 101.387 60.1842 101.404C60.1705 101.42 60.1518 101.433 60.1301 101.441C60.1084 101.449 60.0846 101.452 60.0615 101.448L57.3843 101.062C56.927 100.994 56.4658 100.949 56.0027 100.927L54.5867 100.831C54.1104 100.791 53.6314 100.781 53.1535 100.801H51.6974C51.2044 100.801 50.7171 100.887 50.2241 100.927C49.7265 100.962 49.2323 101.027 48.745 101.122L47.266 101.418L45.8213 101.859C45.3398 102.005 44.8926 102.24 44.4225 102.426C44.1848 102.52 43.9582 102.634 43.746 102.767L43.0868 103.133C42.6511 103.389 42.2613 103.7 41.8542 103.99C41.4697 104.306 41.106 104.641 40.765 104.993C40.0761 105.708 39.5348 106.523 39.1656 107.4C39.1537 107.431 39.1286 107.457 39.0954 107.472C39.0622 107.487 39.0236 107.49 38.9879 107.48C38.9545 107.471 38.9261 107.451 38.9076 107.425L38.3343 106.503L23.8706 84.5703C23.8557 84.5529 23.8477 84.5318 23.8477 84.5101C23.8477 84.4884 23.8557 84.4673 23.8706 84.45C26.1479 82.1905 28.93 80.3629 32.0455 79.0797C34.4562 78.1171 37.0989 77.6834 39.7446 77.8161C41.4352 77.9031 43.0984 78.2299 44.669 78.7839C45.0815 78.9295 45.4836 79.097 45.8729 79.2853L46.171 79.4357L46.2627 79.4909C46.2627 79.4909 46.2226 79.4909 46.1595 79.4457C46.0965 79.4006 45.9818 79.3705 45.8557 79.3104C45.5863 79.195 45.185 79.0296 44.6404 78.849C43.0719 78.3217 41.4172 78.017 39.7388 77.9465C37.1125 77.8238 34.4916 78.2627 32.1028 79.2251C29.0413 80.5219 26.3113 82.3469 24.077 84.5904V84.465L38.5579 106.392L39.1312 107.315H38.8732C39.2508 106.4 39.8118 105.551 40.53 104.808C40.887 104.451 41.2679 104.112 41.6708 103.795C42.0893 103.499 42.4906 103.183 42.9377 102.922L43.6085 102.546C43.8265 102.412 44.0588 102.296 44.3021 102.2C44.7663 101.987 45.2427 101.794 45.7296 101.624L47.2029 101.172L48.7278 100.887C49.2209 100.792 49.7208 100.726 50.2241 100.691C50.7285 100.651 51.2216 100.576 51.7146 100.566H53.1879C53.6717 100.55 54.1562 100.561 54.6383 100.601L56.06 100.701C56.5273 100.722 56.9925 100.769 57.4531 100.842L60.1474 101.233L60.0099 101.393L50.0234 85.5581C48.831 83.6427 47.8851 82.1334 47.2316 81.0904L46.5035 79.902C46.429 79.7717 46.3659 79.6714 46.3201 79.5962C46.2977 79.5608 46.2785 79.5239 46.2627 79.4859Z" fill="#263238"/>
<path d="M4.14453 75.0181L20.265 102.17C20.265 102.17 33.3701 101.669 38.9194 107.255L23.9741 84.5201C23.9741 84.5201 15.2145 75.0181 4.14453 75.0181Z" fill="#F5F5F5"/>
<path d="M4.14453 75.0181H4.55156L5.79556 75.0632C5.93315 75.0632 6.0822 75.0632 6.23125 75.0883L6.70134 75.1535L7.7791 75.3089C8.19741 75.3742 8.61091 75.4613 9.01737 75.5697C9.44733 75.685 9.92315 75.7602 10.399 75.9257C14.2514 77.0489 19.4166 79.7666 24.0658 84.4499L39.0283 107.174C39.0471 107.203 39.0523 107.237 39.0426 107.269C39.0329 107.301 39.0093 107.328 38.9767 107.345C38.9513 107.36 38.9214 107.368 38.8907 107.368C38.8601 107.368 38.8302 107.36 38.8048 107.345L38.1741 106.803C36.9776 105.795 35.5808 104.986 34.0523 104.417C32.5786 103.841 31.0421 103.397 29.4661 103.093C26.4558 102.509 23.3764 102.243 20.2937 102.301C20.2691 102.302 20.2446 102.297 20.2232 102.286C20.2018 102.276 20.1845 102.26 20.1733 102.24L8.59888 82.6147L5.29681 77.0088L4.43117 75.5045L4.21332 75.1234C4.18449 75.0843 4.16138 75.0422 4.14453 74.998C4.17878 75.0403 4.20761 75.0857 4.23052 75.1334L4.4713 75.5245C4.68341 75.8705 4.98151 76.377 5.37707 77.0288C6.16246 78.3425 7.30901 80.2429 8.7422 82.6398C11.6086 87.4284 15.6559 94.1725 20.3854 102.1L20.2593 102.04C23.3647 101.976 26.4676 102.24 29.5005 102.827C31.1043 103.13 32.668 103.577 34.167 104.161C35.7278 104.74 37.1541 105.564 38.3748 106.593C38.5984 106.788 38.8219 106.979 39.0226 107.159L38.7933 107.3L23.8881 84.5552C21.8143 82.442 19.4432 80.5668 16.8311 78.9743C14.8355 77.7395 12.6584 76.7461 10.3588 76.0209C9.88875 75.8555 9.41866 75.7753 8.98871 75.6549C8.58914 75.5406 8.18118 75.4502 7.76763 75.3841L6.69561 75.2137L6.22552 75.1384L5.80703 75.1084L4.14453 75.0181Z" fill="#263238"/>
<path d="M54.4603 152.027L54.8042 152.528C55.1932 153.091 55.7581 153.545 56.4323 153.837L57.0343 154.098L56.461 154.404C55.813 154.741 55.2912 155.236 54.959 155.828L54.6609 156.354L54.317 155.853C53.9265 155.291 53.362 154.837 52.6889 154.544L52.0869 154.283L52.6602 153.977C53.3069 153.639 53.8284 153.144 54.1622 152.553L54.4603 152.027Z" fill="#E8505B"/>
<path d="M22.6837 48.603L23.0334 49.1045C23.4173 49.6687 23.9784 50.1247 24.65 50.4182L25.2233 50.6789L24.65 50.9798C24.0031 51.3181 23.4815 51.8126 23.148 52.4038L22.8499 52.9052L22.5002 52.4038C22.1147 51.8371 21.549 51.3806 20.8721 51.0901L20.2988 50.8294L20.8721 50.5285C21.5154 50.1987 22.0398 49.7174 22.3855 49.1396L22.6837 48.603Z" fill="#E8505B"/>
<path d="M169.78 66.4436L170.124 66.945C170.515 67.5071 171.079 67.9608 171.752 68.2537L172.326 68.5145L171.752 68.8204C171.11 69.1631 170.593 69.6588 170.262 70.2494L169.964 70.7759L169.62 70.2745C169.233 69.7086 168.668 69.2525 167.992 68.9608L167.396 68.695L167.969 68.3941C168.616 68.0538 169.137 67.5577 169.471 66.9651L169.78 66.4436Z" fill="#E8505B"/>
<path d="M152.41 158.525L152.754 159.027C153.145 159.59 153.709 160.045 154.382 160.341L154.984 160.601L154.411 160.902C153.765 161.242 153.244 161.736 152.909 162.326L152.611 162.828L152.267 162.326C151.88 161.76 151.315 161.304 150.639 161.012L150.065 160.752L150.639 160.451C151.284 160.111 151.805 159.617 152.141 159.027L152.41 158.525Z" fill="#E8505B"/>
<path d="M155.718 177.875L155.884 177.93C156.066 177.995 156.265 178.013 156.457 177.981L156.629 177.95L156.566 178.096C156.493 178.255 156.474 178.429 156.509 178.597L156.543 178.748L156.377 178.693C156.195 178.629 155.996 178.611 155.804 178.642L155.632 178.668L155.695 178.527C155.768 178.368 155.788 178.194 155.752 178.026L155.718 177.875Z" fill="#E8505B"/>
<path d="M165.716 47.0334L165.882 47.0936C166.064 47.1573 166.262 47.1747 166.455 47.1438L166.627 47.1137L166.558 47.2591C166.488 47.4186 166.468 47.5919 166.501 47.7605L166.535 47.916L166.369 47.8558C166.187 47.7936 165.989 47.7763 165.796 47.8056L165.618 47.8357L165.687 47.6903C165.761 47.5315 165.781 47.3574 165.744 47.1889L165.716 47.0334Z" fill="#E8505B"/>
<path d="M29.1503 35.0996L29.3166 35.1598C29.4988 35.2219 29.6971 35.2393 29.8898 35.2099L30.0676 35.1798L29.9988 35.3253C29.925 35.4841 29.9051 35.6582 29.9414 35.8267L29.9758 35.9821L29.8096 35.922C29.6272 35.86 29.4291 35.8427 29.2363 35.8718L29.0586 35.9019L29.1274 35.7565C29.1982 35.597 29.218 35.4236 29.1847 35.2551L29.1503 35.0996Z" fill="#E8505B"/>
<path d="M46.0048 136.964L46.1711 137.024C46.3533 137.086 46.5516 137.104 46.7443 137.074L46.9221 137.044L46.8533 137.19C46.7822 137.349 46.7624 137.522 46.7959 137.691L46.8303 137.846L46.6641 137.786C46.4818 137.724 46.2835 137.707 46.0908 137.736L45.9131 137.766L45.9819 137.621C46.0529 137.461 46.0728 137.288 46.0392 137.119L46.0048 136.964Z" fill="#E8505B"/>
<path d="M64.2744 176.341C64.2275 176.393 64.1757 176.442 64.1197 176.486L63.6438 176.902L61.7922 178.507L54.9129 184.303V184.243C55.2396 190.536 55.681 199.085 56.1798 208.597V208.813L55.9734 208.693L53.4911 207.244L37.8006 198.002V197.972L32.0334 183.02C31.3455 181.205 30.8066 179.766 30.4283 178.773L30.0098 177.65C29.9697 177.524 29.9353 177.429 29.9123 177.359L29.8779 177.258C29.8779 177.258 29.8779 177.289 29.9295 177.354C29.9811 177.419 29.9983 177.519 30.0442 177.64C30.1531 177.9 30.3022 178.276 30.4971 178.753L32.1596 182.98C33.5813 186.625 35.5992 191.79 37.9726 197.912L37.9267 197.862L53.6746 207.053L56.1569 208.507L55.962 208.602C55.4976 199.075 55.0791 190.551 54.7695 184.243V184.208L61.6947 178.457L63.5808 176.912L64.0738 176.511L64.2744 176.341Z" fill="#E8505B"/>
<path d="M56.9544 205.709L56.9028 207.128L58.2099 207.971L56.6505 208.367L56.1403 209.716L55.2288 208.537L53.6064 208.532L54.5982 207.409L54.1052 206.055L55.6358 206.537L56.9544 205.709Z" fill="#E8505B"/>
<path d="M38.0019 196.072L38.0306 196.995L38.9134 197.491L37.9274 197.802L37.658 198.689L37.0159 197.962L35.9668 198.013L36.5573 197.255L36.1789 196.398L37.1879 196.654L38.0019 196.072Z" fill="#E8505B"/>
<path d="M29.838 175.553L30.6291 176.441L31.919 176.376L31.1967 177.308L31.6668 178.361L30.4227 178.046L29.4253 178.763L29.3851 177.634L28.2959 177.028L29.5112 176.642L29.838 175.553Z" fill="#E8505B"/>
<path d="M63.4836 174.661L64.2748 175.554L65.5646 175.483L64.8423 176.421L65.3124 177.469L64.0741 177.158L63.0766 177.875L63.0308 176.747L61.9473 176.135L63.1569 175.754L63.4836 174.661Z" fill="#E8505B"/>
<path d="M54.6492 183.26L55.1595 183.827L55.9792 183.782L55.5149 184.379L55.8187 185.051L55.0276 184.85L54.3913 185.306L54.3626 184.589L53.6689 184.203L54.4429 183.957L54.6492 183.26Z" fill="#E8505B"/>
<path d="M24.312 145.333C30.6252 145.333 35.7431 140.856 35.7431 135.334C35.7431 129.812 30.6252 125.336 24.312 125.336C17.9987 125.336 12.8809 129.812 12.8809 135.334C12.8809 140.856 17.9987 145.333 24.312 145.333Z" fill="#E8505B"/>
<g opacity="0.3">
<path opacity="0.3" d="M22.8266 138.458C22.8277 138.782 22.7191 139.098 22.5144 139.368C22.3098 139.637 22.0183 139.848 21.6769 139.972C21.3355 140.096 20.9596 140.13 20.5967 140.067C20.2338 140.005 19.9002 139.849 19.6383 139.621C19.3763 139.392 19.1978 139.101 19.1252 138.784C19.0526 138.467 19.0893 138.138 19.2306 137.839C19.3719 137.54 19.6114 137.284 19.9189 137.104C20.2263 136.925 20.5879 136.829 20.9577 136.829C21.4524 136.829 21.9269 137 22.2772 137.306C22.6275 137.611 22.8251 138.026 22.8266 138.458Z" fill="white"/>
</g>
<g opacity="0.3">
<path opacity="0.3" d="M20.1787 133.75C20.1787 133.937 20.1152 134.121 19.9961 134.276C19.877 134.432 19.7078 134.554 19.5098 134.626C19.3119 134.697 19.094 134.716 18.8838 134.679C18.6737 134.643 18.4806 134.553 18.3291 134.42C18.1775 134.288 18.0743 134.119 18.0325 133.935C17.9907 133.751 18.0122 133.56 18.0942 133.387C18.1762 133.214 18.3151 133.066 18.4933 132.962C18.6714 132.858 18.8809 132.802 19.0952 132.802C19.2377 132.802 19.3789 132.826 19.5107 132.873C19.6425 132.92 19.7623 132.99 19.8631 133.078C19.9638 133.166 20.0436 133.271 20.0978 133.387C20.152 133.502 20.1795 133.625 20.1787 133.75Z" fill="white"/>
</g>
<path d="M13.219 137.766C13.2706 137.942 3.43316 146.195 5.96704 147.955C8.50092 149.715 19.1524 145.202 28.2674 138.779C37.3825 132.356 45.6663 124.554 43.3904 122.488C41.1145 120.422 29.7522 126.539 29.7522 126.539L31.1109 127.297C31.1109 127.297 37.9902 123.441 40.1572 124.935C42.3242 126.429 36.1442 132.281 27.3903 137.862C18.6364 143.442 10.1921 147.364 8.88501 145.834C7.57794 144.305 13.7578 139.2 13.7578 139.2L13.219 137.766Z" fill="#E8505B"/>
<g opacity="0.3">
<path opacity="0.3" d="M13.219 137.766C13.2706 137.942 3.43316 146.195 5.96704 147.955C8.50092 149.715 19.1524 145.202 28.2674 138.779C37.3825 132.356 45.6663 124.554 43.3904 122.488C41.1145 120.422 29.7522 126.539 29.7522 126.539L31.1109 127.297C31.1109 127.297 37.9902 123.441 40.1572 124.935C42.3242 126.429 36.1442 132.281 27.3903 137.862C18.6364 143.442 10.1921 147.364 8.88501 145.834C7.57794 144.305 13.7578 139.2 13.7578 139.2L13.219 137.766Z" fill="black"/>
</g>
<g opacity="0.3">
<path opacity="0.3" d="M18.0115 128.29C18.1032 128.39 17.3293 128.961 16.4521 130.12C15.2885 131.602 14.6467 133.349 14.6059 135.147C14.5652 136.944 15.1273 138.712 16.2228 140.233C17.0426 141.417 17.7936 142.019 17.6962 142.114C17.5987 142.209 16.7216 141.718 15.7012 140.539C15.1178 139.844 14.6561 139.077 14.331 138.263C13.9285 137.256 13.7344 136.195 13.7577 135.129C13.7882 134.062 14.0387 133.009 14.4973 132.02C14.863 131.217 15.3655 130.466 15.9878 129.794C17.014 128.651 17.9541 128.219 18.0115 128.29Z" fill="white"/>
</g>
<path d="M156.821 47.6193C160.582 44.4674 160.709 39.2459 157.105 35.9569C153.502 32.6678 147.532 32.5566 143.772 35.7085C140.011 38.8604 139.884 44.0818 143.488 47.3709C147.091 50.66 153.061 50.7712 156.821 47.6193Z" fill="#E8505B"/>
<g opacity="0.4">
<path opacity="0.4" d="M153.379 38.5043C153.387 38.2387 153.485 37.9811 153.661 37.7641C153.836 37.5471 154.081 37.3805 154.365 37.2853C154.649 37.19 154.958 37.1705 155.254 37.2292C155.551 37.2878 155.821 37.422 156.03 37.6148C156.239 37.8075 156.378 38.0502 156.429 38.3121C156.481 38.574 156.443 38.8434 156.319 39.0861C156.195 39.3289 155.992 39.5343 155.736 39.6761C155.479 39.818 155.179 39.8901 154.876 39.8832C154.674 39.8787 154.475 39.8394 154.291 39.7676C154.106 39.6959 153.94 39.593 153.801 39.4649C153.662 39.3369 153.553 39.1861 153.481 39.0213C153.409 38.8565 153.374 38.6808 153.379 38.5043Z" fill="black"/>
</g>
<g opacity="0.4">
<path opacity="0.4" d="M156.451 41.6481C156.455 41.4935 156.511 41.3432 156.612 41.2162C156.713 41.0893 156.855 40.9914 157.019 40.935C157.184 40.8786 157.364 40.8661 157.537 40.8992C157.71 40.9323 157.867 41.0095 157.99 41.1209C158.113 41.2324 158.195 41.3732 158.226 41.5255C158.257 41.6777 158.236 41.8347 158.165 41.9764C158.094 42.1182 157.977 42.2384 157.828 42.3219C157.679 42.4054 157.505 42.4484 157.328 42.4454C157.211 42.4435 157.095 42.4213 156.987 42.3802C156.88 42.339 156.783 42.2797 156.701 42.2057C156.62 42.1317 156.556 42.0443 156.513 41.9487C156.47 41.853 156.449 41.7509 156.451 41.6481Z" fill="black"/>
</g>
<g opacity="0.4">
<path opacity="0.4" d="M155.253 44.0502C155.319 44.0513 155.384 44.0694 155.438 44.1025C155.492 44.1355 155.534 44.1818 155.557 44.2356C155.581 44.2894 155.586 44.3482 155.572 44.4046C155.558 44.4609 155.524 44.5122 155.476 44.5519C155.429 44.5917 155.368 44.6181 155.303 44.6277C155.238 44.6374 155.171 44.6299 155.111 44.6062C155.051 44.5825 155 44.5437 154.965 44.4947C154.93 44.4457 154.913 44.3887 154.915 44.331C154.916 44.2931 154.925 44.2556 154.943 44.2208C154.96 44.1861 154.985 44.1547 155.017 44.1286C155.048 44.1024 155.086 44.082 155.126 44.0686C155.167 44.0551 155.21 44.0489 155.253 44.0502Z" fill="black"/>
</g>
</g>
<defs>
<clipPath id="clip0_305:3481">
<rect width="204" height="220" fill="white"/>
</clipPath>
</defs>
</svg>
